%TF.GenerationSoftware,Altium Limited,Altium Designer,24.6.1 (21)*%
G04 Layer_Physical_Order=3*
G04 Layer_Color=16440176*
%FSLAX45Y45*%
%MOMM*%
%TF.SameCoordinates,4B1D9C49-5ED8-45E5-B71D-261F0C762659*%
%TF.FilePolarity,Positive*%
%TF.FileFunction,Copper,L3,Inr,Signal*%
%TF.Part,Single*%
G01*
G75*
%TA.AperFunction,ViaPad*%
%ADD41C,3.20000*%
%TA.AperFunction,ComponentPad*%
%ADD42C,1.06700*%
%TA.AperFunction,ViaPad*%
%ADD43C,0.60000*%
%ADD44C,0.70000*%
%ADD45C,0.50000*%
G36*
X11370089Y9540239D02*
X11416314Y9521092D01*
X11457915Y9493294D01*
X11493295Y9457915D01*
X11521092Y9416314D01*
X11540239Y9370089D01*
X11550000Y9321017D01*
Y9296000D01*
Y6304000D01*
Y6278983D01*
X11540239Y6229911D01*
X11521092Y6183686D01*
X11493295Y6142084D01*
X11457915Y6106705D01*
X11416314Y6078908D01*
X11370089Y6059761D01*
X11321017Y6050000D01*
X8278983D01*
X8229911Y6059761D01*
X8183686Y6078908D01*
X8142084Y6106705D01*
X8106705Y6142084D01*
X8078908Y6183686D01*
X8059761Y6229911D01*
X8050000Y6278983D01*
Y6304000D01*
Y9296000D01*
Y9321017D01*
X8059761Y9370089D01*
X8078908Y9416314D01*
X8106705Y9457915D01*
X8142084Y9493294D01*
X8183686Y9521092D01*
X8229911Y9540239D01*
X8278983Y9550000D01*
X11321017D01*
X11370089Y9540239D01*
D02*
G37*
%LPC*%
G36*
X9359946Y9500000D02*
X9340054D01*
X9321677Y9492388D01*
X9307612Y9478323D01*
X9300000Y9459946D01*
Y9440054D01*
X9307612Y9421677D01*
X9321677Y9407612D01*
X9340054Y9400000D01*
X9359946D01*
X9378323Y9407612D01*
X9392388Y9421677D01*
X9400000Y9440054D01*
Y9459946D01*
X9392388Y9478323D01*
X9378323Y9492388D01*
X9359946Y9500000D01*
D02*
G37*
G36*
X10410940Y9345000D02*
X10389060D01*
X10368845Y9336626D01*
X10353374Y9321155D01*
X10345000Y9300940D01*
Y9279060D01*
X10353374Y9258845D01*
X10368845Y9243373D01*
X10389060Y9235000D01*
X10410940D01*
X10431155Y9243373D01*
X10446627Y9258845D01*
X10455000Y9279060D01*
Y9300940D01*
X10446627Y9321155D01*
X10431155Y9336626D01*
X10410940Y9345000D01*
D02*
G37*
G36*
X11317728Y9480000D02*
X11282272D01*
X11247496Y9473083D01*
X11214738Y9459514D01*
X11185257Y9439815D01*
X11160185Y9414743D01*
X11140486Y9385262D01*
X11126917Y9352504D01*
X11120000Y9317728D01*
Y9282272D01*
X11126917Y9247496D01*
X11140486Y9214738D01*
X11160185Y9185257D01*
X11185257Y9160185D01*
X11214738Y9140486D01*
X11247496Y9126917D01*
X11282272Y9120000D01*
X11317728D01*
X11352504Y9126917D01*
X11385262Y9140486D01*
X11414743Y9160185D01*
X11439815Y9185257D01*
X11459514Y9214738D01*
X11473083Y9247496D01*
X11480000Y9282272D01*
Y9317728D01*
X11473083Y9352504D01*
X11459514Y9385262D01*
X11439815Y9414743D01*
X11414743Y9439815D01*
X11385262Y9459514D01*
X11352504Y9473083D01*
X11317728Y9480000D01*
D02*
G37*
G36*
X8317728D02*
X8282271D01*
X8247496Y9473083D01*
X8214738Y9459514D01*
X8185257Y9439815D01*
X8160185Y9414743D01*
X8140486Y9385262D01*
X8126917Y9352504D01*
X8120000Y9317728D01*
Y9282272D01*
X8126917Y9247496D01*
X8140486Y9214738D01*
X8160185Y9185257D01*
X8185257Y9160185D01*
X8214738Y9140486D01*
X8247496Y9126917D01*
X8282271Y9120000D01*
X8317728D01*
X8352504Y9126917D01*
X8385262Y9140486D01*
X8414743Y9160185D01*
X8439815Y9185257D01*
X8459514Y9214738D01*
X8473083Y9247496D01*
X8480000Y9282272D01*
Y9317728D01*
X8473083Y9352504D01*
X8459514Y9385262D01*
X8439815Y9414743D01*
X8414743Y9439815D01*
X8385262Y9459514D01*
X8352504Y9473083D01*
X8317728Y9480000D01*
D02*
G37*
G36*
X9450940Y9195000D02*
X9429060D01*
X9408845Y9186627D01*
X9393373Y9171155D01*
X9385000Y9150940D01*
Y9129060D01*
X9393373Y9108845D01*
X9408845Y9093373D01*
X9429060Y9085000D01*
X9450940D01*
X9471155Y9093373D01*
X9486626Y9108845D01*
X9495000Y9129060D01*
Y9150940D01*
X9486626Y9171155D01*
X9471155Y9186627D01*
X9450940Y9195000D01*
D02*
G37*
G36*
X9650940Y9185000D02*
X9629060D01*
X9608845Y9176627D01*
X9593373Y9161155D01*
X9585000Y9140940D01*
Y9119060D01*
X9593373Y9098845D01*
X9608845Y9083374D01*
X9629060Y9075000D01*
X9650940D01*
X9671155Y9083374D01*
X9686627Y9098845D01*
X9695000Y9119060D01*
Y9140940D01*
X9686627Y9161155D01*
X9671155Y9176627D01*
X9650940Y9185000D01*
D02*
G37*
G36*
X9359946Y9080000D02*
X9340054D01*
X9321677Y9072388D01*
X9307612Y9058323D01*
X9300000Y9039946D01*
Y9020054D01*
X9307612Y9001677D01*
X9321677Y8987612D01*
X9340054Y8980000D01*
X9359946D01*
X9378323Y8987612D01*
X9392388Y9001677D01*
X9400000Y9020054D01*
Y9039946D01*
X9392388Y9058323D01*
X9378323Y9072388D01*
X9359946Y9080000D01*
D02*
G37*
G36*
X10180657Y8988450D02*
X10161343D01*
X10142688Y8983451D01*
X10125962Y8973795D01*
X10112305Y8960138D01*
X10102649Y8943412D01*
X10097650Y8924757D01*
Y8905443D01*
X10102649Y8886788D01*
X10112305Y8870062D01*
X10125962Y8856405D01*
X10142688Y8846749D01*
X10161343Y8841750D01*
X10180657D01*
X10199312Y8846749D01*
X10216038Y8856405D01*
X10229695Y8870062D01*
X10239351Y8886788D01*
X10244350Y8905443D01*
Y8924757D01*
X10239351Y8943412D01*
X10229695Y8960138D01*
X10216038Y8973795D01*
X10199312Y8983451D01*
X10180657Y8988450D01*
D02*
G37*
G36*
X10688657Y8886850D02*
X10669343D01*
X10650688Y8881851D01*
X10633962Y8872195D01*
X10620305Y8858538D01*
X10610649Y8841812D01*
X10605650Y8823157D01*
Y8803843D01*
X10610649Y8785188D01*
X10620305Y8768462D01*
X10633962Y8754805D01*
X10650688Y8745149D01*
X10669343Y8740150D01*
X10688657D01*
X10707312Y8745149D01*
X10724038Y8754805D01*
X10737695Y8768462D01*
X10747351Y8785188D01*
X10752350Y8803843D01*
Y8823157D01*
X10747351Y8841812D01*
X10737695Y8858538D01*
X10724038Y8872195D01*
X10707312Y8881851D01*
X10688657Y8886850D01*
D02*
G37*
G36*
X10180657Y8785250D02*
X10161343D01*
X10142688Y8780251D01*
X10125962Y8770595D01*
X10112305Y8756938D01*
X10102649Y8740212D01*
X10097650Y8721557D01*
Y8702243D01*
X10102649Y8683588D01*
X10112305Y8666862D01*
X10125962Y8653205D01*
X10142688Y8643549D01*
X10161343Y8638550D01*
X10180657D01*
X10199312Y8643549D01*
X10216038Y8653205D01*
X10229695Y8666862D01*
X10239351Y8683588D01*
X10244350Y8702243D01*
Y8721557D01*
X10239351Y8740212D01*
X10229695Y8756938D01*
X10216038Y8770595D01*
X10199312Y8780251D01*
X10180657Y8785250D01*
D02*
G37*
G36*
X8639946Y8450000D02*
X8620054D01*
X8601677Y8442388D01*
X8587612Y8428323D01*
X8580000Y8409946D01*
Y8390054D01*
X8587612Y8371677D01*
X8601677Y8357612D01*
X8620054Y8350000D01*
X8639946D01*
X8658323Y8357612D01*
X8672388Y8371677D01*
X8680000Y8390054D01*
Y8409946D01*
X8672388Y8428323D01*
X8658323Y8442388D01*
X8639946Y8450000D01*
D02*
G37*
G36*
X10719946Y8380000D02*
X10700054D01*
X10681677Y8372388D01*
X10667612Y8358323D01*
X10660000Y8339946D01*
Y8320054D01*
X10667612Y8301677D01*
X10681677Y8287612D01*
X10700054Y8280000D01*
X10719946D01*
X10738323Y8287612D01*
X10752388Y8301677D01*
X10760000Y8320054D01*
Y8339946D01*
X10752388Y8358323D01*
X10738323Y8372388D01*
X10719946Y8380000D01*
D02*
G37*
G36*
X10399946D02*
X10380054D01*
X10361677Y8372388D01*
X10347612Y8358323D01*
X10340000Y8339946D01*
Y8320054D01*
X10347612Y8301677D01*
X10361677Y8287612D01*
X10380054Y8280000D01*
X10399946D01*
X10418323Y8287612D01*
X10432388Y8301677D01*
X10440000Y8320054D01*
Y8339946D01*
X10432388Y8358323D01*
X10418323Y8372388D01*
X10399946Y8380000D01*
D02*
G37*
G36*
X8529946Y8280000D02*
X8510054D01*
X8491677Y8272388D01*
X8477612Y8258323D01*
X8470000Y8239946D01*
Y8220054D01*
X8477612Y8201677D01*
X8491677Y8187612D01*
X8510054Y8180000D01*
X8529946D01*
X8548323Y8187612D01*
X8562388Y8201677D01*
X8570000Y8220054D01*
Y8239946D01*
X8562388Y8258323D01*
X8548323Y8272388D01*
X8529946Y8280000D01*
D02*
G37*
G36*
X9067446Y7850000D02*
X9047554D01*
X9029177Y7842388D01*
X9015112Y7828323D01*
X9007500Y7809946D01*
Y7790054D01*
X9015112Y7771677D01*
X9029177Y7757612D01*
X9047554Y7750000D01*
X9067446D01*
X9085823Y7757612D01*
X9099888Y7771677D01*
X9107500Y7790054D01*
Y7809946D01*
X9099888Y7828323D01*
X9085823Y7842388D01*
X9067446Y7850000D01*
D02*
G37*
G36*
X11317728Y6480000D02*
X11282272D01*
X11247496Y6473083D01*
X11214738Y6459514D01*
X11185257Y6439815D01*
X11160185Y6414743D01*
X11140486Y6385262D01*
X11126917Y6352504D01*
X11120000Y6317729D01*
Y6282272D01*
X11126917Y6247496D01*
X11140486Y6214738D01*
X11160185Y6185257D01*
X11185257Y6160185D01*
X11214738Y6140486D01*
X11247496Y6126917D01*
X11282272Y6120000D01*
X11317728D01*
X11352504Y6126917D01*
X11385262Y6140486D01*
X11414743Y6160185D01*
X11439815Y6185257D01*
X11459514Y6214738D01*
X11473083Y6247496D01*
X11480000Y6282272D01*
Y6317729D01*
X11473083Y6352504D01*
X11459514Y6385262D01*
X11439815Y6414743D01*
X11414743Y6439815D01*
X11385262Y6459514D01*
X11352504Y6473083D01*
X11317728Y6480000D01*
D02*
G37*
G36*
X8317728D02*
X8282271D01*
X8247496Y6473083D01*
X8214738Y6459514D01*
X8185257Y6439815D01*
X8160185Y6414743D01*
X8140486Y6385262D01*
X8126917Y6352504D01*
X8120000Y6317729D01*
Y6282272D01*
X8126917Y6247496D01*
X8140486Y6214738D01*
X8160185Y6185257D01*
X8185257Y6160185D01*
X8214738Y6140486D01*
X8247496Y6126917D01*
X8282271Y6120000D01*
X8317728D01*
X8352504Y6126917D01*
X8385262Y6140486D01*
X8414743Y6160185D01*
X8439815Y6185257D01*
X8459514Y6214738D01*
X8473083Y6247496D01*
X8480000Y6282272D01*
Y6317729D01*
X8473083Y6352504D01*
X8459514Y6385262D01*
X8439815Y6414743D01*
X8414743Y6439815D01*
X8385262Y6459514D01*
X8352504Y6473083D01*
X8317728Y6480000D01*
D02*
G37*
G36*
X10027446Y6212500D02*
X10007555D01*
X9989177Y6204888D01*
X9975112Y6190823D01*
X9967500Y6172446D01*
Y6152554D01*
X9975112Y6134177D01*
X9989177Y6120112D01*
X10007555Y6112500D01*
X10027446D01*
X10045823Y6120112D01*
X10059888Y6134177D01*
X10067500Y6152554D01*
Y6172446D01*
X10059888Y6190823D01*
X10045823Y6204888D01*
X10027446Y6212500D01*
D02*
G37*
G36*
X9569946Y6210000D02*
X9550054D01*
X9531677Y6202388D01*
X9517612Y6188323D01*
X9510000Y6169946D01*
Y6150055D01*
X9517612Y6131677D01*
X9531677Y6117612D01*
X9550054Y6110000D01*
X9569946D01*
X9588323Y6117612D01*
X9602388Y6131677D01*
X9610000Y6150055D01*
Y6169946D01*
X9602388Y6188323D01*
X9588323Y6202388D01*
X9569946Y6210000D01*
D02*
G37*
%LPD*%
D41*
X8300000Y6300000D02*
D03*
Y9300000D02*
D03*
X11300000D02*
D03*
Y6300000D02*
D03*
D42*
X10171000Y8915100D02*
D03*
Y8711900D02*
D03*
X10679000Y8813500D02*
D03*
D43*
X10017500Y6162500D02*
D03*
X9560000Y6160000D02*
D03*
X9350000Y9030000D02*
D03*
Y9450000D02*
D03*
X9360000Y8600000D02*
D03*
X10710000Y8330000D02*
D03*
X10970000Y8160000D02*
D03*
X10390000Y8330000D02*
D03*
X8630000Y8400000D02*
D03*
X8520000Y8230000D02*
D03*
X8973757Y7327500D02*
D03*
X8492500Y7517500D02*
D03*
X8460000Y8630000D02*
D03*
X10920000Y7010000D02*
D03*
X11020000D02*
D03*
X10730000Y7300000D02*
D03*
Y7200000D02*
D03*
X10300000Y8990000D02*
D03*
X10220000Y9120000D02*
D03*
X10230000Y8150000D02*
D03*
X9050000Y7690000D02*
D03*
X9611250Y6341250D02*
D03*
X11250000Y7010000D02*
D03*
X10700000Y6820000D02*
D03*
X10740000Y7490000D02*
D03*
X10900000Y7500000D02*
D03*
X10070000D02*
D03*
X9620000Y7260000D02*
D03*
X9900000Y7280000D02*
D03*
X8580000Y7670000D02*
D03*
X8750000Y8070000D02*
D03*
X9230000Y8470000D02*
D03*
X8460000Y8830000D02*
D03*
X9450000Y8550000D02*
D03*
X8900000Y8420000D02*
D03*
X9057500Y7800000D02*
D03*
D44*
X9440000Y9140000D02*
D03*
X9640000Y9130000D02*
D03*
X10400000Y9290000D02*
D03*
D45*
X8845000Y8830000D02*
D03*
Y8720000D02*
D03*
X8955000D02*
D03*
Y8830000D02*
D03*
X9845000Y7680000D02*
D03*
X9735000D02*
D03*
X9625000D02*
D03*
X9515000D02*
D03*
X9405000D02*
D03*
X9845000Y7790000D02*
D03*
X9735000D02*
D03*
X9625000D02*
D03*
X9515000D02*
D03*
X9405000D02*
D03*
X9845000Y7900000D02*
D03*
X9735000D02*
D03*
X9625000D02*
D03*
X9515000D02*
D03*
X9405000D02*
D03*
X9845000Y8010000D02*
D03*
X9735000D02*
D03*
X9625000D02*
D03*
X9515000D02*
D03*
X9405000D02*
D03*
X9845000Y8120000D02*
D03*
X9735000D02*
D03*
X9625000D02*
D03*
X9515000D02*
D03*
X9405000D02*
D03*
%TF.MD5,e36f4da911daf173e3b3feba8353a0ab*%
M02*
