%TF.GenerationSoftware,Altium Limited,Altium Designer,24.6.1 (21)*%
G04 Layer_Color=16711935*
%FSLAX45Y45*%
%MOMM*%
%TF.SameCoordinates,4B1D9C49-5ED8-45E5-B71D-261F0C762659*%
%TF.FilePolarity,Positive*%
%TF.FileFunction,Other,Mechanical_13*%
%TF.Part,Single*%
G01*
G75*
%TA.AperFunction,NonConductor*%
%ADD46C,0.25400*%
%ADD47C,0.25000*%
%ADD49C,0.20000*%
%ADD50C,0.17500*%
%ADD72C,0.10000*%
%ADD73C,0.15000*%
D46*
X8636180Y7327500D02*
G03*
X8636180Y7327500I-11180J0D01*
G01*
X10526567Y8762717D02*
X10551959Y8737325D01*
X10602742D01*
X10628134Y8762717D01*
Y8788108D01*
X10602742Y8813500D01*
X10551959D01*
X10526567Y8838892D01*
Y8864284D01*
X10551959Y8889675D01*
X10602742D01*
X10628134Y8864284D01*
X10475783Y8737325D02*
Y8889675D01*
X10425000Y8838892D01*
X10374216Y8889675D01*
Y8737325D01*
X10323433D02*
Y8889675D01*
X10247257D01*
X10221866Y8864284D01*
Y8762717D01*
X10247257Y8737325D01*
X10323433D01*
D47*
X8997500Y6525000D02*
G03*
X8997500Y6525000I-10000J0D01*
G01*
D49*
X8712500Y6015000D02*
Y6215000D01*
Y6015000D02*
X9887500D01*
Y6615000D01*
X8712500D02*
X9887500D01*
X8712500Y6215000D02*
Y6615000D01*
D50*
X9177500Y8530000D02*
X9342500D01*
X9177500D02*
Y8830000D01*
X9342500D01*
Y8530000D02*
Y8830000D01*
X9455000Y8385000D02*
Y8615000D01*
Y8385000D02*
X9595000D01*
Y8615000D01*
X9455000D02*
X9595000D01*
X9405000Y8745000D02*
X9635000D01*
X9405000Y8605000D02*
Y8745000D01*
Y8605000D02*
X9635000D01*
Y8745000D01*
X9585000Y8605000D02*
X9815000D01*
Y8745000D01*
X9585000D02*
X9815000D01*
X9585000Y8605000D02*
Y8745000D01*
X8620000Y8760000D02*
Y8990000D01*
X8480000D02*
X8620000D01*
X8480000Y8760000D02*
Y8990000D01*
Y8760000D02*
X8620000D01*
Y8560000D02*
Y8790000D01*
X8480000D02*
X8620000D01*
X8480000Y8560000D02*
Y8790000D01*
Y8560000D02*
X8620000D01*
X9075000Y8440000D02*
X9305000D01*
X9075000Y8300000D02*
Y8440000D01*
Y8300000D02*
X9305000D01*
Y8440000D01*
X10957500Y7762500D02*
Y7927500D01*
X10657500Y7762500D02*
X10957500D01*
X10657500D02*
Y7927500D01*
X10957500D01*
X9830000Y7305000D02*
Y7445000D01*
X10060000D01*
Y7305000D02*
Y7445000D01*
X9830000Y7305000D02*
X10060000D01*
X10055000Y8085000D02*
X10195000D01*
X10055000D02*
Y8315000D01*
X10195000D01*
Y8085000D02*
Y8315000D01*
X9055000Y8010000D02*
X9195000D01*
X9055000D02*
Y8240000D01*
X9195000D01*
Y8010000D02*
Y8240000D01*
X9060000Y7775000D02*
X9200000D01*
Y7545000D02*
Y7775000D01*
X9060000Y7545000D02*
X9200000D01*
X9060000D02*
Y7775000D01*
X11320000Y6535000D02*
Y6765000D01*
X11180000D02*
X11320000D01*
X11180000Y6535000D02*
Y6765000D01*
Y6535000D02*
X11320000D01*
X10860700Y6548400D02*
Y6980200D01*
Y6548400D02*
X11089300D01*
Y6980200D01*
X10860700D02*
X11089300D01*
X10820000Y7510000D02*
Y7810000D01*
X10655000D02*
X10820000D01*
X10655000Y7510000D02*
Y7810000D01*
Y7510000D02*
X10820000D01*
X10980000Y7515000D02*
Y7815000D01*
X10815000D02*
X10980000D01*
X10815000Y7515000D02*
Y7815000D01*
Y7515000D02*
X10980000D01*
X11180000Y6990000D02*
X11320000D01*
Y6760000D02*
Y6990000D01*
X11180000Y6760000D02*
X11320000D01*
X11180000D02*
Y6990000D01*
X10269800Y7364300D02*
X10701600D01*
X10269800Y7135700D02*
Y7364300D01*
Y7135700D02*
X10701600D01*
Y7364300D01*
X8890000Y8355000D02*
Y8495000D01*
X8660000Y8355000D02*
X8890000D01*
X8660000D02*
Y8495000D01*
X8890000D01*
X10095000Y7430000D02*
Y7570000D01*
X10325000D01*
Y7430000D02*
Y7570000D01*
X10095000Y7430000D02*
X10325000D01*
X10095000Y7605000D02*
Y7745000D01*
X10325000D01*
Y7605000D02*
Y7745000D01*
X10095000Y7605000D02*
X10325000D01*
X10435000Y9055000D02*
Y9195000D01*
X10665000D01*
Y9055000D02*
Y9195000D01*
X10435000Y9055000D02*
X10665000D01*
X8812500Y7720000D02*
Y7860000D01*
X9042500D01*
Y7720000D02*
Y7860000D01*
X8812500Y7720000D02*
X9042500D01*
X8517500Y7267500D02*
Y7612755D01*
Y7267500D02*
X8552500Y7232500D01*
X8959745D01*
Y7612755D01*
X8517500D02*
X8787244D01*
X8692245D02*
X8959745D01*
X10245000Y9055000D02*
Y9195000D01*
X10475000D01*
Y9055000D02*
Y9195000D01*
X10245000Y9055000D02*
X10475000D01*
X9550000Y7292500D02*
X9850000D01*
Y7457500D01*
X9550000D02*
X9850000D01*
X9550000Y7292500D02*
Y7457500D01*
X8957500Y8000000D02*
Y8300000D01*
X8792500D02*
X8957500D01*
X8792500Y8000000D02*
Y8300000D01*
Y8000000D02*
X8957500D01*
X9032500Y7595000D02*
Y7735000D01*
X8802500Y7595000D02*
X9032500D01*
X8802500D02*
Y7735000D01*
X9032500D01*
X8587500Y7600000D02*
Y7740000D01*
X8817500D01*
Y7600000D02*
Y7740000D01*
X8587500Y7600000D02*
X8817500D01*
X10775000Y8623500D02*
Y9003500D01*
X10075000D02*
X10775000D01*
X10075000Y8623500D02*
Y9003500D01*
Y8623500D02*
X10775000D01*
X9233355Y6399984D02*
X9200032D01*
X9216694D01*
Y6316677D01*
X9200032Y6300016D01*
X9183371D01*
X9166710Y6316677D01*
X9266677Y6399984D02*
X9333322D01*
X9300000D01*
Y6300016D01*
X9433290Y6383323D02*
X9416629Y6399984D01*
X9383307D01*
X9366645Y6383323D01*
Y6366661D01*
X9383307Y6350000D01*
X9416629D01*
X9433290Y6333339D01*
Y6316677D01*
X9416629Y6300016D01*
X9383307D01*
X9366645Y6316677D01*
D72*
X9410000Y8165000D02*
G03*
X9410000Y8165000I-50000J0D01*
G01*
X9100000Y8575000D02*
Y8975000D01*
X8700000D02*
X9100000D01*
X8700000Y8575000D02*
Y8975000D01*
Y8575000D02*
X9100000D01*
X9270000Y7545000D02*
X9980000D01*
X9270000Y8255000D02*
X9980000D01*
Y7545000D02*
Y8255000D01*
X9270000Y7545000D02*
Y8255000D01*
X10053339Y7775000D02*
X10086661D01*
X10070000Y7791661D02*
Y7758339D01*
X11150000Y6493339D02*
Y6526661D01*
X11133338Y6510000D02*
X11166661D01*
D73*
X9226677Y8621686D02*
X9210016Y8605024D01*
Y8571702D01*
X9226677Y8555041D01*
X9293322D01*
X9309984Y8571702D01*
Y8605024D01*
X9293322Y8621686D01*
X9309984Y8655008D02*
Y8688331D01*
Y8671670D01*
X9210016D01*
X9226677Y8655008D01*
Y8738315D02*
X9210016Y8754976D01*
Y8788299D01*
X9226677Y8804960D01*
X9243339D01*
X9260000Y8788299D01*
Y8771637D01*
Y8788299D01*
X9276661Y8804960D01*
X9293322D01*
X9309984Y8788299D01*
Y8754976D01*
X9293322Y8738315D01*
X9475016Y8566645D02*
X9574984D01*
Y8516661D01*
X9558323Y8500000D01*
X9525000D01*
X9508339Y8516661D01*
Y8566645D01*
Y8533322D02*
X9475016Y8500000D01*
Y8466677D02*
Y8433354D01*
Y8450016D01*
X9574984D01*
X9558323Y8466677D01*
X9603307Y8724984D02*
Y8625016D01*
X9553323D01*
X9536662Y8641677D01*
Y8675000D01*
X9553323Y8691661D01*
X9603307D01*
X9569984D02*
X9536662Y8724984D01*
X9503339Y8625016D02*
X9436694D01*
Y8641677D01*
X9503339Y8708322D01*
Y8724984D01*
X9616693Y8625016D02*
Y8724984D01*
X9666677D01*
X9683339Y8708322D01*
Y8675000D01*
X9666677Y8658339D01*
X9616693D01*
X9650016D02*
X9683339Y8625016D01*
X9783306Y8724984D02*
X9749984Y8708322D01*
X9716661Y8675000D01*
Y8641677D01*
X9733323Y8625016D01*
X9766645D01*
X9783306Y8641677D01*
Y8658339D01*
X9766645Y8675000D01*
X9716661D01*
X8503977Y8816685D02*
X8487316Y8800024D01*
Y8766702D01*
X8503977Y8750040D01*
X8570622D01*
X8587284Y8766702D01*
Y8800024D01*
X8570622Y8816685D01*
X8587284Y8850008D02*
Y8883331D01*
Y8866670D01*
X8487316D01*
X8503977Y8850008D01*
Y8933315D02*
X8487316Y8949976D01*
Y8983299D01*
X8503977Y8999960D01*
X8520639D01*
X8537300Y8983299D01*
X8553961Y8999960D01*
X8570622D01*
X8587284Y8983299D01*
Y8949976D01*
X8570622Y8933315D01*
X8553961D01*
X8537300Y8949976D01*
X8520639Y8933315D01*
X8503977D01*
X8537300Y8949976D02*
Y8983299D01*
X8503977Y8633347D02*
X8487316Y8616686D01*
Y8583363D01*
X8503977Y8566702D01*
X8570622D01*
X8587284Y8583363D01*
Y8616686D01*
X8570622Y8633347D01*
X8587284Y8666669D02*
Y8699992D01*
Y8683331D01*
X8487316D01*
X8503977Y8666669D01*
X8587284Y8749976D02*
Y8783298D01*
Y8766637D01*
X8487316D01*
X8503977Y8749976D01*
X9190000Y8323977D02*
X9206661Y8307316D01*
X9239984D01*
X9256645Y8323977D01*
Y8390622D01*
X9239984Y8407283D01*
X9206661D01*
X9190000Y8390622D01*
X9156677Y8407283D02*
X9123355D01*
X9140016D01*
Y8307316D01*
X9156677Y8323977D01*
X10857484Y7795016D02*
X10924129D01*
Y7845000D01*
X10890807D01*
X10924129D01*
Y7894984D01*
X10824161Y7795016D02*
Y7894984D01*
X10774177D01*
X10757516Y7878323D01*
Y7861661D01*
X10774177Y7845000D01*
X10824161D01*
X10774177D01*
X10757516Y7828339D01*
Y7811678D01*
X10774177Y7795016D01*
X10824161D01*
X10724193Y7894984D02*
X10690871D01*
X10707532D01*
Y7795016D01*
X10724193Y7811678D01*
X9928339Y7421022D02*
X9911677Y7437684D01*
X9878355D01*
X9861694Y7421022D01*
Y7354377D01*
X9878355Y7337716D01*
X9911677D01*
X9928339Y7354377D01*
X9961661Y7421022D02*
X9978323Y7437684D01*
X10011645D01*
X10028306Y7421022D01*
Y7404361D01*
X10011645Y7387700D01*
X9994984D01*
X10011645D01*
X10028306Y7371039D01*
Y7354377D01*
X10011645Y7337716D01*
X9978323D01*
X9961661Y7354377D01*
X10078978Y8183338D02*
X10062316Y8166677D01*
Y8133355D01*
X10078978Y8116693D01*
X10145623D01*
X10162284Y8133355D01*
Y8166677D01*
X10145623Y8183338D01*
X10162284Y8283306D02*
Y8216661D01*
X10095639Y8283306D01*
X10078978D01*
X10062316Y8266645D01*
Y8233323D01*
X10078978Y8216661D01*
X9078978Y8108338D02*
X9062316Y8091677D01*
Y8058355D01*
X9078978Y8041693D01*
X9145623D01*
X9162284Y8058355D01*
Y8091677D01*
X9145623Y8108338D01*
X9062316Y8208306D02*
Y8141661D01*
X9112300D01*
X9095639Y8174984D01*
Y8191645D01*
X9112300Y8208306D01*
X9145623D01*
X9162284Y8191645D01*
Y8158323D01*
X9145623Y8141661D01*
X9176023Y7676661D02*
X9192684Y7693322D01*
Y7726645D01*
X9176023Y7743306D01*
X9109378D01*
X9092716Y7726645D01*
Y7693322D01*
X9109378Y7676661D01*
X9092716Y7593354D02*
X9192684D01*
X9142700Y7643338D01*
Y7576693D01*
X11187316Y6583355D02*
X11287284D01*
Y6633339D01*
X11270623Y6650000D01*
X11203978D01*
X11187316Y6633339D01*
Y6583355D01*
X11287284Y6683323D02*
Y6716645D01*
Y6699984D01*
X11187316D01*
X11203978Y6683323D01*
X11008322Y6822614D02*
X11024984Y6839275D01*
Y6872598D01*
X11008322Y6889259D01*
X10941677D01*
X10925016Y6872598D01*
Y6839275D01*
X10941677Y6822614D01*
X10925016Y6789291D02*
Y6755969D01*
Y6772630D01*
X11024984D01*
X11008322Y6789291D01*
X11024984Y6705985D02*
Y6639340D01*
X11008322D01*
X10941677Y6705985D01*
X10925016D01*
X10704177Y7601686D02*
X10687516Y7585024D01*
Y7551702D01*
X10704177Y7535041D01*
X10770823D01*
X10787484Y7551702D01*
Y7585024D01*
X10770823Y7601686D01*
X10787484Y7635008D02*
Y7668331D01*
Y7651670D01*
X10687516D01*
X10704177Y7635008D01*
X10687516Y7784960D02*
Y7718315D01*
X10737500D01*
X10720839Y7751637D01*
Y7768299D01*
X10737500Y7784960D01*
X10770823D01*
X10787484Y7768299D01*
Y7734976D01*
X10770823Y7718315D01*
X10864177Y7606686D02*
X10847516Y7590024D01*
Y7556702D01*
X10864177Y7540041D01*
X10930822D01*
X10947484Y7556702D01*
Y7590024D01*
X10930822Y7606686D01*
X10947484Y7640008D02*
Y7673331D01*
Y7656670D01*
X10847516D01*
X10864177Y7640008D01*
X10947484Y7773299D02*
X10847516D01*
X10897500Y7723315D01*
Y7789960D01*
X11200016Y6958306D02*
X11299984D01*
Y6908322D01*
X11283322Y6891661D01*
X11250000D01*
X11233338Y6908322D01*
Y6958306D01*
Y6924984D02*
X11200016Y6891661D01*
Y6808354D02*
X11299984D01*
X11250000Y6858338D01*
Y6791693D01*
X10544014Y7216677D02*
X10560676Y7200015D01*
X10593998D01*
X10610659Y7216677D01*
Y7283322D01*
X10593998Y7299983D01*
X10560676D01*
X10544014Y7283322D01*
X10510692Y7299983D02*
X10477369D01*
X10494030D01*
Y7200015D01*
X10510692Y7216677D01*
X10360740Y7200015D02*
X10394063Y7216677D01*
X10427385Y7249999D01*
Y7283322D01*
X10410724Y7299983D01*
X10377401D01*
X10360740Y7283322D01*
Y7266661D01*
X10377401Y7249999D01*
X10427385D01*
X8833315Y8378977D02*
X8849976Y8362316D01*
X8883298D01*
X8899960Y8378977D01*
Y8445622D01*
X8883298Y8462284D01*
X8849976D01*
X8833315Y8445622D01*
X8799992Y8462284D02*
X8766670D01*
X8783331D01*
Y8362316D01*
X8799992Y8378977D01*
X8650041Y8462284D02*
X8716686D01*
X8650041Y8395639D01*
Y8378977D01*
X8666702Y8362316D01*
X8700024D01*
X8716686Y8378977D01*
X10126693Y7450016D02*
Y7549984D01*
X10176677D01*
X10193338Y7533322D01*
Y7500000D01*
X10176677Y7483339D01*
X10126693D01*
X10160016D02*
X10193338Y7450016D01*
X10293306Y7549984D02*
X10226661D01*
Y7500000D01*
X10259984Y7516661D01*
X10276645D01*
X10293306Y7500000D01*
Y7466677D01*
X10276645Y7450016D01*
X10243322D01*
X10226661Y7466677D01*
X10126693Y7737684D02*
Y7637716D01*
X10176677D01*
X10193338Y7654377D01*
Y7721022D01*
X10176677Y7737684D01*
X10126693D01*
X10293306Y7637716D02*
X10226661D01*
X10293306Y7704361D01*
Y7721022D01*
X10276645Y7737684D01*
X10243322D01*
X10226661Y7721022D01*
X10466694Y9075016D02*
Y9174984D01*
X10516677D01*
X10533339Y9158323D01*
Y9125000D01*
X10516677Y9108339D01*
X10466694D01*
X10500016D02*
X10533339Y9075016D01*
X10633306D02*
X10566661D01*
X10633306Y9141661D01*
Y9158323D01*
X10616645Y9174984D01*
X10583323D01*
X10566661Y9158323D01*
X8844194Y7740016D02*
Y7839984D01*
X8894178D01*
X8910839Y7823322D01*
Y7790000D01*
X8894178Y7773339D01*
X8844194D01*
X8877516D02*
X8910839Y7740016D01*
X8944161Y7823322D02*
X8960823Y7839984D01*
X8994145D01*
X9010806Y7823322D01*
Y7806661D01*
X8994145Y7790000D01*
X8977484D01*
X8994145D01*
X9010806Y7773339D01*
Y7756677D01*
X8994145Y7740016D01*
X8960823D01*
X8944161Y7756677D01*
X8673355Y7472484D02*
X8740000Y7372516D01*
Y7472484D02*
X8673355Y7372516D01*
X8773323D02*
X8806645D01*
X8789984D01*
Y7472484D01*
X8773323Y7455823D01*
X10343338Y9171023D02*
X10326677Y9187684D01*
X10293355D01*
X10276693Y9171023D01*
Y9104378D01*
X10293355Y9087716D01*
X10326677D01*
X10343338Y9104378D01*
X10376661Y9171023D02*
X10393323Y9187684D01*
X10426645D01*
X10443306Y9171023D01*
Y9154361D01*
X10426645Y9137700D01*
X10443306Y9121039D01*
Y9104378D01*
X10426645Y9087716D01*
X10393323D01*
X10376661Y9104378D01*
Y9121039D01*
X10393323Y9137700D01*
X10376661Y9154361D01*
Y9171023D01*
X10393323Y9137700D02*
X10426645D01*
X9683339Y7408322D02*
X9666677Y7424984D01*
X9633355D01*
X9616693Y7408322D01*
Y7341677D01*
X9633355Y7325016D01*
X9666677D01*
X9683339Y7341677D01*
X9716661Y7424984D02*
X9783306D01*
Y7408322D01*
X9716661Y7341677D01*
Y7325016D01*
X8841678Y8133339D02*
X8825016Y8116677D01*
Y8083355D01*
X8841678Y8066694D01*
X8908323D01*
X8924984Y8083355D01*
Y8116677D01*
X8908323Y8133339D01*
X8825016Y8233306D02*
X8841678Y8199984D01*
X8875000Y8166661D01*
X8908323D01*
X8924984Y8183323D01*
Y8216645D01*
X8908323Y8233306D01*
X8891661D01*
X8875000Y8216645D01*
Y8166661D01*
X8934161Y7618977D02*
X8950822Y7602316D01*
X8984145D01*
X9000806Y7618977D01*
Y7685622D01*
X8984145Y7702284D01*
X8950822D01*
X8934161Y7685622D01*
X8900838D02*
X8884177Y7702284D01*
X8850855D01*
X8834193Y7685622D01*
Y7618977D01*
X8850855Y7602316D01*
X8884177D01*
X8900838Y7618977D01*
Y7635639D01*
X8884177Y7652300D01*
X8834193D01*
X8644185Y7716022D02*
X8627524Y7732684D01*
X8594202D01*
X8577540Y7716022D01*
Y7649377D01*
X8594202Y7632716D01*
X8627524D01*
X8644185Y7649377D01*
X8677508Y7632716D02*
X8710831D01*
X8694170D01*
Y7732684D01*
X8677508Y7716022D01*
X8760815D02*
X8777476Y7732684D01*
X8810798D01*
X8827460Y7716022D01*
Y7649377D01*
X8810798Y7632716D01*
X8777476D01*
X8760815Y7649377D01*
Y7716022D01*
%TF.MD5,2d86a0094ce336c12342e1dff7a872b4*%
M02*
