%TF.GenerationSoftware,Altium Limited,Altium Designer,24.6.1 (21)*%
G04 Layer_Physical_Order=4*
G04 Layer_Color=16711680*
%FSLAX45Y45*%
%MOMM*%
%TF.SameCoordinates,4B1D9C49-5ED8-45E5-B71D-261F0C762659*%
%TF.FilePolarity,Positive*%
%TF.FileFunction,Copper,L4,Bot,Signal*%
%TF.Part,Single*%
G01*
G75*
%TA.AperFunction,Conductor*%
%ADD34C,1.00000*%
%ADD37C,0.25000*%
%ADD40C,0.20000*%
%TA.AperFunction,ViaPad*%
%ADD41C,3.20000*%
%TA.AperFunction,ComponentPad*%
%ADD42C,1.06700*%
%TA.AperFunction,ViaPad*%
%ADD43C,0.60000*%
%ADD44C,0.70000*%
%ADD45C,0.50000*%
D34*
X9562500Y6162500D02*
X10017500D01*
X9560000Y6160000D02*
X9562500Y6162500D01*
X9335000Y9045000D02*
Y9435000D01*
Y9045000D02*
X9350000Y9030000D01*
X9335000Y9435000D02*
X9350000Y9450000D01*
X10390000Y8330000D02*
X10710000D01*
X8520000Y8290000D02*
X8630000Y8400000D01*
X8520000Y8230000D02*
Y8290000D01*
D37*
X9440000Y9140000D02*
X9617823D01*
X9627823Y9130000D02*
X9640000D01*
X9617823Y9140000D02*
X9627823Y9130000D01*
D40*
X9057500Y8049162D02*
X9950000Y8941662D01*
Y9278284D02*
X9961716Y9290000D01*
X10400000D01*
X9950000Y8941662D02*
Y9278284D01*
X9057500Y7800000D02*
Y8049162D01*
D41*
X8300000Y6300000D02*
D03*
Y9300000D02*
D03*
X11300000D02*
D03*
Y6300000D02*
D03*
D42*
X10171000Y8915100D02*
D03*
Y8711900D02*
D03*
X10679000Y8813500D02*
D03*
D43*
X10017500Y6162500D02*
D03*
X9560000Y6160000D02*
D03*
X9350000Y9030000D02*
D03*
Y9450000D02*
D03*
X9360000Y8600000D02*
D03*
X10710000Y8330000D02*
D03*
X10970000Y8160000D02*
D03*
X10390000Y8330000D02*
D03*
X8630000Y8400000D02*
D03*
X8520000Y8230000D02*
D03*
X8973757Y7327500D02*
D03*
X8492500Y7517500D02*
D03*
X8460000Y8630000D02*
D03*
X10920000Y7010000D02*
D03*
X11020000D02*
D03*
X10730000Y7300000D02*
D03*
Y7200000D02*
D03*
X10300000Y8990000D02*
D03*
X10220000Y9120000D02*
D03*
X10230000Y8150000D02*
D03*
X9050000Y7690000D02*
D03*
X9611250Y6341250D02*
D03*
X11250000Y7010000D02*
D03*
X10700000Y6820000D02*
D03*
X10740000Y7490000D02*
D03*
X10900000Y7500000D02*
D03*
X10070000D02*
D03*
X9620000Y7260000D02*
D03*
X9900000Y7280000D02*
D03*
X8580000Y7670000D02*
D03*
X8750000Y8070000D02*
D03*
X9230000Y8470000D02*
D03*
X8460000Y8830000D02*
D03*
X9450000Y8550000D02*
D03*
X8900000Y8420000D02*
D03*
X9057500Y7800000D02*
D03*
D44*
X9440000Y9140000D02*
D03*
X9640000Y9130000D02*
D03*
X10400000Y9290000D02*
D03*
D45*
X8845000Y8830000D02*
D03*
Y8720000D02*
D03*
X8955000D02*
D03*
Y8830000D02*
D03*
X9845000Y7680000D02*
D03*
X9735000D02*
D03*
X9625000D02*
D03*
X9515000D02*
D03*
X9405000D02*
D03*
X9845000Y7790000D02*
D03*
X9735000D02*
D03*
X9625000D02*
D03*
X9515000D02*
D03*
X9405000D02*
D03*
X9845000Y7900000D02*
D03*
X9735000D02*
D03*
X9625000D02*
D03*
X9515000D02*
D03*
X9405000D02*
D03*
X9845000Y8010000D02*
D03*
X9735000D02*
D03*
X9625000D02*
D03*
X9515000D02*
D03*
X9405000D02*
D03*
X9845000Y8120000D02*
D03*
X9735000D02*
D03*
X9625000D02*
D03*
X9515000D02*
D03*
X9405000D02*
D03*
%TF.MD5,b192f843d75672468b39f5aa8e70a8a8*%
M02*
