%TF.GenerationSoftware,Altium Limited,Altium Designer,24.6.1 (21)*%
G04 Layer_Color=8388736*
%FSLAX45Y45*%
%MOMM*%
%TF.SameCoordinates,4B1D9C49-5ED8-45E5-B71D-261F0C762659*%
%TF.FilePolarity,Negative*%
%TF.FileFunction,Soldermask,Top*%
%TF.Part,Single*%
G01*
G75*
%TA.AperFunction,ConnectorPad*%
%ADD19R,1.30000X1.65000*%
%ADD20R,1.90000X1.80000*%
%ADD21R,1.90000X1.00000*%
%ADD22R,1.55000X1.42500*%
%ADD23R,1.38000X0.45000*%
%TA.AperFunction,SMDPad,CuDef*%
%ADD25R,1.25000X1.25000*%
%ADD29R,3.18213X1.00429*%
%TA.AperFunction,ConnectorPad*%
%ADD51R,1.20320X3.10320*%
%ADD52R,0.85320X1.90320*%
%TA.AperFunction,SMDPad,CuDef*%
G04:AMPARAMS|DCode=53|XSize=1.0032mm|YSize=1.2032mm|CornerRadius=0.2016mm|HoleSize=0mm|Usage=FLASHONLY|Rotation=90.000|XOffset=0mm|YOffset=0mm|HoleType=Round|Shape=RoundedRectangle|*
%AMROUNDEDRECTD53*
21,1,1.00320,0.80000,0,0,90.0*
21,1,0.60000,1.20320,0,0,90.0*
1,1,0.40320,0.40000,0.30000*
1,1,0.40320,0.40000,-0.30000*
1,1,0.40320,-0.40000,-0.30000*
1,1,0.40320,-0.40000,0.30000*
%
%ADD53ROUNDEDRECTD53*%
%ADD54R,0.45320X1.00320*%
%ADD55R,1.00320X0.45320*%
%ADD56R,2.80320X2.90320*%
G04:AMPARAMS|DCode=57|XSize=0.8032mm|YSize=0.9032mm|CornerRadius=0.1766mm|HoleSize=0mm|Usage=FLASHONLY|Rotation=270.000|XOffset=0mm|YOffset=0mm|HoleType=Round|Shape=RoundedRectangle|*
%AMROUNDEDRECTD57*
21,1,0.80320,0.55000,0,0,270.0*
21,1,0.45000,0.90320,0,0,270.0*
1,1,0.35320,-0.27500,-0.22500*
1,1,0.35320,-0.27500,0.22500*
1,1,0.35320,0.27500,0.22500*
1,1,0.35320,0.27500,-0.22500*
%
%ADD57ROUNDEDRECTD57*%
G04:AMPARAMS|DCode=58|XSize=0.8032mm|YSize=0.9032mm|CornerRadius=0.1766mm|HoleSize=0mm|Usage=FLASHONLY|Rotation=180.000|XOffset=0mm|YOffset=0mm|HoleType=Round|Shape=RoundedRectangle|*
%AMROUNDEDRECTD58*
21,1,0.80320,0.55000,0,0,180.0*
21,1,0.45000,0.90320,0,0,180.0*
1,1,0.35320,-0.22500,0.27500*
1,1,0.35320,0.22500,0.27500*
1,1,0.35320,0.22500,-0.27500*
1,1,0.35320,-0.22500,-0.27500*
%
%ADD58ROUNDEDRECTD58*%
G04:AMPARAMS|DCode=59|XSize=1.0032mm|YSize=1.2032mm|CornerRadius=0.2016mm|HoleSize=0mm|Usage=FLASHONLY|Rotation=180.000|XOffset=0mm|YOffset=0mm|HoleType=Round|Shape=RoundedRectangle|*
%AMROUNDEDRECTD59*
21,1,1.00320,0.80000,0,0,180.0*
21,1,0.60000,1.20320,0,0,180.0*
1,1,0.40320,-0.30000,0.40000*
1,1,0.40320,0.30000,0.40000*
1,1,0.40320,0.30000,-0.40000*
1,1,0.40320,-0.30000,-0.40000*
%
%ADD59ROUNDEDRECTD59*%
%ADD60R,5.80320X5.80320*%
%ADD61O,0.45320X1.00320*%
%ADD62O,1.00320X0.45320*%
G04:AMPARAMS|DCode=63|XSize=1.6032mm|YSize=1.9032mm|CornerRadius=0.2766mm|HoleSize=0mm|Usage=FLASHONLY|Rotation=270.000|XOffset=0mm|YOffset=0mm|HoleType=Round|Shape=RoundedRectangle|*
%AMROUNDEDRECTD63*
21,1,1.60320,1.35000,0,0,270.0*
21,1,1.05000,1.90320,0,0,270.0*
1,1,0.55320,-0.67500,-0.52500*
1,1,0.55320,-0.67500,0.52500*
1,1,0.55320,0.67500,0.52500*
1,1,0.55320,0.67500,-0.52500*
%
%ADD63ROUNDEDRECTD63*%
G04:AMPARAMS|DCode=64|XSize=1.6032mm|YSize=1.9032mm|CornerRadius=0.2766mm|HoleSize=0mm|Usage=FLASHONLY|Rotation=180.000|XOffset=0mm|YOffset=0mm|HoleType=Round|Shape=RoundedRectangle|*
%AMROUNDEDRECTD64*
21,1,1.60320,1.35000,0,0,180.0*
21,1,1.05000,1.90320,0,0,180.0*
1,1,0.55320,-0.52500,0.67500*
1,1,0.55320,0.52500,0.67500*
1,1,0.55320,0.52500,-0.67500*
1,1,0.55320,-0.52500,-0.67500*
%
%ADD64ROUNDEDRECTD64*%
G04:AMPARAMS|DCode=65|XSize=1.5032mm|YSize=1.3032mm|CornerRadius=0.1566mm|HoleSize=0mm|Usage=FLASHONLY|Rotation=0.000|XOffset=0mm|YOffset=0mm|HoleType=Round|Shape=RoundedRectangle|*
%AMROUNDEDRECTD65*
21,1,1.50320,0.99000,0,0,0.0*
21,1,1.19000,1.30320,0,0,0.0*
1,1,0.31320,0.59500,-0.49500*
1,1,0.31320,-0.59500,-0.49500*
1,1,0.31320,-0.59500,0.49500*
1,1,0.31320,0.59500,0.49500*
%
%ADD65ROUNDEDRECTD65*%
%TA.AperFunction,BGAPad,CuDef*%
%ADD66C,1.06620*%
%TA.AperFunction,ViaPad*%
%ADD67C,3.40320*%
%TA.AperFunction,ComponentPad*%
%ADD68C,1.27020*%
%TA.AperFunction,ViaPad*%
%ADD69C,0.80320*%
%ADD70C,0.90320*%
%ADD71C,0.70320*%
D19*
X11416000Y7692500D02*
D03*
Y8367500D02*
D03*
D20*
Y7915000D02*
D03*
D21*
Y8185000D02*
D03*
D22*
X11158500Y7781250D02*
D03*
Y8278750D02*
D03*
D23*
X11150000Y7900000D02*
D03*
Y7965000D02*
D03*
Y8030000D02*
D03*
Y8095000D02*
D03*
Y8160000D02*
D03*
D25*
X10700000Y6950000D02*
D03*
X10471000D02*
D03*
X10242000D02*
D03*
D29*
X10471000Y6291000D02*
D03*
D51*
X9797500Y6210000D02*
D03*
X8802500D02*
D03*
D52*
X9612500Y6490000D02*
D03*
X9237500D02*
D03*
X9487500D02*
D03*
X9362500D02*
D03*
X9112500D02*
D03*
X8987500D02*
D03*
D53*
X9260000Y8755000D02*
D03*
Y8605000D02*
D03*
X10737500Y7585000D02*
D03*
Y7735000D02*
D03*
X10897500Y7590000D02*
D03*
Y7740000D02*
D03*
X8875000Y8075000D02*
D03*
Y8225000D02*
D03*
D54*
X9025000Y8975000D02*
D03*
X8975000D02*
D03*
X8925000D02*
D03*
X8875000D02*
D03*
X8825000D02*
D03*
X8775000D02*
D03*
X9025000Y8575000D02*
D03*
X8975000D02*
D03*
X8925000D02*
D03*
X8875000D02*
D03*
X8825000D02*
D03*
X8775000D02*
D03*
D55*
X8702500Y8900000D02*
D03*
Y8850000D02*
D03*
Y8800000D02*
D03*
Y8750000D02*
D03*
Y8700000D02*
D03*
Y8650000D02*
D03*
X9097500Y8900000D02*
D03*
Y8850000D02*
D03*
Y8800000D02*
D03*
Y8750000D02*
D03*
Y8700000D02*
D03*
Y8650000D02*
D03*
D56*
X8900000Y8775000D02*
D03*
D57*
X9525000Y8550000D02*
D03*
Y8450000D02*
D03*
X8550000Y8825000D02*
D03*
Y8925000D02*
D03*
Y8625000D02*
D03*
Y8725000D02*
D03*
X10125000Y8250000D02*
D03*
Y8150000D02*
D03*
X9125000Y8175000D02*
D03*
Y8075000D02*
D03*
X9130000Y7610000D02*
D03*
Y7710000D02*
D03*
X11250000Y6600000D02*
D03*
Y6700000D02*
D03*
Y6825000D02*
D03*
Y6925000D02*
D03*
D58*
X9570000Y8675000D02*
D03*
X9470000D02*
D03*
X9650000D02*
D03*
X9750000D02*
D03*
X9240000Y8370000D02*
D03*
X9140000D02*
D03*
X9995000Y7375000D02*
D03*
X9895000D02*
D03*
X8725000Y8425000D02*
D03*
X8825000D02*
D03*
X10260000Y7500000D02*
D03*
X10160000D02*
D03*
X10260000Y7675000D02*
D03*
X10160000D02*
D03*
X10600000Y9125000D02*
D03*
X10500000D02*
D03*
X8977500Y7790000D02*
D03*
X8877500D02*
D03*
X10410000Y9125000D02*
D03*
X10310000D02*
D03*
X8867500Y7665000D02*
D03*
X8967500D02*
D03*
X8752500Y7670000D02*
D03*
X8652500D02*
D03*
D59*
X10732500Y7845000D02*
D03*
X10882500D02*
D03*
X9625000Y7375000D02*
D03*
X9775000D02*
D03*
D60*
X9625000Y7900000D02*
D03*
D61*
X9350000Y8240000D02*
D03*
X9400000D02*
D03*
X9450000D02*
D03*
X9500000D02*
D03*
X9550000D02*
D03*
X9600000D02*
D03*
X9650000D02*
D03*
X9700000D02*
D03*
X9750000D02*
D03*
X9800000D02*
D03*
X9850000D02*
D03*
X9900000D02*
D03*
Y7560000D02*
D03*
X9850000D02*
D03*
X9800000D02*
D03*
X9750000D02*
D03*
X9700000D02*
D03*
X9650000D02*
D03*
X9600000D02*
D03*
X9550000D02*
D03*
X9500000D02*
D03*
X9450000D02*
D03*
X9400000D02*
D03*
X9350000D02*
D03*
D62*
X9965000Y8175000D02*
D03*
Y8125000D02*
D03*
Y8075000D02*
D03*
Y8025000D02*
D03*
Y7975000D02*
D03*
Y7925000D02*
D03*
Y7875000D02*
D03*
Y7825000D02*
D03*
Y7775000D02*
D03*
Y7725000D02*
D03*
Y7675000D02*
D03*
Y7625000D02*
D03*
X9285000D02*
D03*
Y7675000D02*
D03*
Y7725000D02*
D03*
Y7775000D02*
D03*
Y7825000D02*
D03*
Y7875000D02*
D03*
Y7925000D02*
D03*
Y7975000D02*
D03*
Y8025000D02*
D03*
Y8075000D02*
D03*
Y8125000D02*
D03*
Y8175000D02*
D03*
D63*
X10975000Y6878600D02*
D03*
Y6650000D02*
D03*
D64*
X10600000Y7250000D02*
D03*
X10371400D02*
D03*
D65*
X8855000Y7327500D02*
D03*
Y7517500D02*
D03*
X8625000Y7327500D02*
D03*
Y7517500D02*
D03*
D66*
X10298000Y8750000D02*
D03*
X10425000D02*
D03*
X10552000D02*
D03*
X10298000Y8877000D02*
D03*
X10425000D02*
D03*
X10552000D02*
D03*
D67*
X8300000Y6300000D02*
D03*
Y9300000D02*
D03*
X11300000D02*
D03*
Y6300000D02*
D03*
D68*
X10171000Y8915100D02*
D03*
Y8711900D02*
D03*
X10679000Y8813500D02*
D03*
D69*
X10017500Y6162500D02*
D03*
X9560000Y6160000D02*
D03*
X9350000Y9030000D02*
D03*
Y9450000D02*
D03*
X9360000Y8600000D02*
D03*
X10710000Y8330000D02*
D03*
X10970000Y8160000D02*
D03*
X10390000Y8330000D02*
D03*
X8630000Y8400000D02*
D03*
X8520000Y8230000D02*
D03*
X8973757Y7327500D02*
D03*
X8492500Y7517500D02*
D03*
X8460000Y8630000D02*
D03*
X10920000Y7010000D02*
D03*
X11020000D02*
D03*
X10730000Y7300000D02*
D03*
Y7200000D02*
D03*
X10300000Y8990000D02*
D03*
X10220000Y9120000D02*
D03*
X10230000Y8150000D02*
D03*
X9050000Y7690000D02*
D03*
X9611250Y6341250D02*
D03*
X11250000Y7010000D02*
D03*
X10700000Y6820000D02*
D03*
X10740000Y7490000D02*
D03*
X10900000Y7500000D02*
D03*
X10070000D02*
D03*
X9620000Y7260000D02*
D03*
X9900000Y7280000D02*
D03*
X8580000Y7670000D02*
D03*
X8750000Y8070000D02*
D03*
X9230000Y8470000D02*
D03*
X8460000Y8830000D02*
D03*
X9450000Y8550000D02*
D03*
X8900000Y8420000D02*
D03*
X9057500Y7800000D02*
D03*
D70*
X9440000Y9140000D02*
D03*
X9640000Y9130000D02*
D03*
X10400000Y9290000D02*
D03*
D71*
X8845000Y8830000D02*
D03*
Y8720000D02*
D03*
X8955000D02*
D03*
Y8830000D02*
D03*
X9845000Y7680000D02*
D03*
X9735000D02*
D03*
X9625000D02*
D03*
X9515000D02*
D03*
X9405000D02*
D03*
X9845000Y7790000D02*
D03*
X9735000D02*
D03*
X9625000D02*
D03*
X9515000D02*
D03*
X9405000D02*
D03*
X9845000Y7900000D02*
D03*
X9735000D02*
D03*
X9625000D02*
D03*
X9515000D02*
D03*
X9405000D02*
D03*
X9845000Y8010000D02*
D03*
X9735000D02*
D03*
X9625000D02*
D03*
X9515000D02*
D03*
X9405000D02*
D03*
X9845000Y8120000D02*
D03*
X9735000D02*
D03*
X9625000D02*
D03*
X9515000D02*
D03*
X9405000D02*
D03*
%TF.MD5,c81173a1c93c0581be8f962f5d1e27f8*%
M02*
