%TF.GenerationSoftware,Altium Limited,Altium Designer,24.6.1 (21)*%
G04 Layer_Color=128*
%FSLAX45Y45*%
%MOMM*%
%TF.SameCoordinates,4B1D9C49-5ED8-45E5-B71D-261F0C762659*%
%TF.FilePolarity,Positive*%
%TF.FileFunction,Drillmap*%
%TF.Part,Single*%
G01*
G75*
%TA.AperFunction,NonConductor*%
%ADD85C,0.12700*%
D85*
X8140000Y6300000D02*
X8460000D01*
X8300000Y6140000D02*
Y6460000D01*
X8140000Y9300000D02*
X8460000D01*
X8300000Y9140000D02*
Y9460000D01*
X11140000Y9300000D02*
X11460000D01*
X11300000Y9140000D02*
Y9460000D01*
X11140000Y6300000D02*
X11460000D01*
X11300000Y6140000D02*
Y6460000D01*
X10117650Y8915100D02*
X10224350D01*
X10171000Y8861750D02*
Y8968450D01*
X10117650Y8711900D02*
X10224350D01*
X10171000Y8658550D02*
Y8765250D01*
X10625650Y8813500D02*
X10732350D01*
X10679000Y8760150D02*
Y8866850D01*
X10005000Y6162500D02*
X10030000D01*
X10017500Y6150000D02*
Y6175000D01*
X9547500Y6160000D02*
X9572500D01*
X9560000Y6147500D02*
Y6172500D01*
X9337500Y9030000D02*
X9362500D01*
X9350000Y9017500D02*
Y9042500D01*
X9425000Y9140000D02*
X9455000D01*
X9440000Y9125000D02*
Y9155000D01*
X9625000Y9130000D02*
X9655000D01*
X9640000Y9115000D02*
Y9145000D01*
X9337500Y9450000D02*
X9362500D01*
X9350000Y9437500D02*
Y9462500D01*
X9347500Y8600000D02*
X9372500D01*
X9360000Y8587500D02*
Y8612500D01*
X10697500Y8330000D02*
X10722500D01*
X10710000Y8317500D02*
Y8342500D01*
X10957500Y8160000D02*
X10982500D01*
X10970000Y8147500D02*
Y8172500D01*
X10377500Y8330000D02*
X10402500D01*
X10390000Y8317500D02*
Y8342500D01*
X8617500Y8400000D02*
X8642500D01*
X8630000Y8387500D02*
Y8412500D01*
X8507500Y8230000D02*
X8532500D01*
X8520000Y8217500D02*
Y8242500D01*
X8961257Y7327500D02*
X8986257D01*
X8973757Y7315000D02*
Y7340000D01*
X8480000Y7517500D02*
X8505000D01*
X8492500Y7505000D02*
Y7530000D01*
X8447500Y8630000D02*
X8472500D01*
X8460000Y8617500D02*
Y8642500D01*
X10907500Y7010000D02*
X10932500D01*
X10920000Y6997500D02*
Y7022500D01*
X11007500Y7010000D02*
X11032500D01*
X11020000Y6997500D02*
Y7022500D01*
X10717500Y7300000D02*
X10742500D01*
X10730000Y7287500D02*
Y7312500D01*
X10717500Y7200000D02*
X10742500D01*
X10730000Y7187500D02*
Y7212500D01*
X10287500Y8990000D02*
X10312500D01*
X10300000Y8977500D02*
Y9002500D01*
X10207500Y9120000D02*
X10232500D01*
X10220000Y9107500D02*
Y9132500D01*
X10217500Y8150000D02*
X10242500D01*
X10230000Y8137500D02*
Y8162500D01*
X9037500Y7690000D02*
X9062500D01*
X9050000Y7677500D02*
Y7702500D01*
X9598750Y6341250D02*
X9623750D01*
X9611250Y6328750D02*
Y6353750D01*
X11237500Y7010000D02*
X11262500D01*
X11250000Y6997500D02*
Y7022500D01*
X10687500Y6820000D02*
X10712500D01*
X10700000Y6807500D02*
Y6832500D01*
X10727500Y7490000D02*
X10752500D01*
X10740000Y7477500D02*
Y7502500D01*
X10887500Y7500000D02*
X10912500D01*
X10900000Y7487500D02*
Y7512500D01*
X10057500Y7500000D02*
X10082500D01*
X10070000Y7487500D02*
Y7512500D01*
X9607500Y7260000D02*
X9632500D01*
X9620000Y7247500D02*
Y7272500D01*
X9887500Y7280000D02*
X9912500D01*
X9900000Y7267500D02*
Y7292500D01*
X8567500Y7670000D02*
X8592500D01*
X8580000Y7657500D02*
Y7682500D01*
X8737500Y8070000D02*
X8762500D01*
X8750000Y8057500D02*
Y8082500D01*
X9217500Y8470000D02*
X9242500D01*
X9230000Y8457500D02*
Y8482500D01*
X8835000Y8830000D02*
X8855000D01*
X8845000Y8820000D02*
Y8840000D01*
X8835000Y8720000D02*
X8855000D01*
X8845000Y8710000D02*
Y8730000D01*
X8945000Y8720000D02*
X8965000D01*
X8955000Y8710000D02*
Y8730000D01*
X8945000Y8830000D02*
X8965000D01*
X8955000Y8820000D02*
Y8840000D01*
X8447500Y8830000D02*
X8472500D01*
X8460000Y8817500D02*
Y8842500D01*
X9437500Y8550000D02*
X9462500D01*
X9450000Y8537500D02*
Y8562500D01*
X8887500Y8420000D02*
X8912500D01*
X8900000Y8407500D02*
Y8432500D01*
X10385000Y9290000D02*
X10415000D01*
X10400000Y9275000D02*
Y9305000D01*
X9045000Y7800000D02*
X9070000D01*
X9057500Y7787500D02*
Y7812500D01*
X9835000Y7680000D02*
X9855000D01*
X9845000Y7670000D02*
Y7690000D01*
X9725000Y7680000D02*
X9745000D01*
X9735000Y7670000D02*
Y7690000D01*
X9615000Y7680000D02*
X9635000D01*
X9625000Y7670000D02*
Y7690000D01*
X9505000Y7680000D02*
X9525000D01*
X9515000Y7670000D02*
Y7690000D01*
X9395000Y7680000D02*
X9415000D01*
X9405000Y7670000D02*
Y7690000D01*
X9835000Y7790000D02*
X9855000D01*
X9845000Y7780000D02*
Y7800000D01*
X9725000Y7790000D02*
X9745000D01*
X9735000Y7780000D02*
Y7800000D01*
X9615000Y7790000D02*
X9635000D01*
X9625000Y7780000D02*
Y7800000D01*
X9505000Y7790000D02*
X9525000D01*
X9515000Y7780000D02*
Y7800000D01*
X9395000Y7790000D02*
X9415000D01*
X9405000Y7780000D02*
Y7800000D01*
X9835000Y7900000D02*
X9855000D01*
X9845000Y7890000D02*
Y7910000D01*
X9725000Y7900000D02*
X9745000D01*
X9735000Y7890000D02*
Y7910000D01*
X9615000Y7900000D02*
X9635000D01*
X9625000Y7890000D02*
Y7910000D01*
X9505000Y7900000D02*
X9525000D01*
X9515000Y7890000D02*
Y7910000D01*
X9395000Y7900000D02*
X9415000D01*
X9405000Y7890000D02*
Y7910000D01*
X9835000Y8010000D02*
X9855000D01*
X9845000Y8000000D02*
Y8020000D01*
X9725000Y8010000D02*
X9745000D01*
X9735000Y8000000D02*
Y8020000D01*
X9615000Y8010000D02*
X9635000D01*
X9625000Y8000000D02*
Y8020000D01*
X9505000Y8010000D02*
X9525000D01*
X9515000Y8000000D02*
Y8020000D01*
X9395000Y8010000D02*
X9415000D01*
X9405000Y8000000D02*
Y8020000D01*
X9835000Y8120000D02*
X9855000D01*
X9845000Y8110000D02*
Y8130000D01*
X9725000Y8120000D02*
X9745000D01*
X9735000Y8110000D02*
Y8130000D01*
X9615000Y8120000D02*
X9635000D01*
X9625000Y8110000D02*
Y8130000D01*
X9505000Y8120000D02*
X9525000D01*
X9515000Y8110000D02*
Y8130000D01*
X9395000Y8120000D02*
X9415000D01*
X9405000Y8110000D02*
Y8130000D01*
%TF.MD5,16e9b6eaaa41270c34658844b0ca0212*%
M02*
