%TF.GenerationSoftware,Altium Limited,Altium Designer,24.6.1 (21)*%
G04 Layer_Color=0*
%FSLAX45Y45*%
%MOMM*%
%TF.SameCoordinates,4B1D9C49-5ED8-45E5-B71D-261F0C762659*%
%TF.FilePolarity,Positive*%
%TF.FileFunction,Plated,1,4,PTH,Drill*%
%TF.Part,Single*%
G01*
G75*
%TA.AperFunction,OtherDrill,Pad Free-1 (83mm,63mm)*%
%ADD77C,3.20000*%
%TA.AperFunction,OtherDrill,Pad Free-1 (83mm,93mm)*%
%ADD78C,3.20000*%
%TA.AperFunction,OtherDrill,Pad Free-1 (113mm,93mm)*%
%ADD79C,3.20000*%
%TA.AperFunction,OtherDrill,Pad Free-1 (113mm,63mm)*%
%ADD80C,3.20000*%
%TA.AperFunction,ViaDrill,NotFilled*%
%ADD81C,0.25000*%
%ADD82C,0.30000*%
%ADD83C,0.20000*%
D77*
X8300000Y6300000D02*
D03*
D78*
Y9300000D02*
D03*
D79*
X11300000D02*
D03*
D80*
Y6300000D02*
D03*
D81*
X10017500Y6162500D02*
D03*
X9560000Y6160000D02*
D03*
X9350000Y9030000D02*
D03*
Y9450000D02*
D03*
X9360000Y8600000D02*
D03*
X10710000Y8330000D02*
D03*
X10970000Y8160000D02*
D03*
X10390000Y8330000D02*
D03*
X8630000Y8400000D02*
D03*
X8520000Y8230000D02*
D03*
X8973757Y7327500D02*
D03*
X8492500Y7517500D02*
D03*
X8460000Y8630000D02*
D03*
X10920000Y7010000D02*
D03*
X11020000D02*
D03*
X10730000Y7300000D02*
D03*
Y7200000D02*
D03*
X10300000Y8990000D02*
D03*
X10220000Y9120000D02*
D03*
X10230000Y8150000D02*
D03*
X9050000Y7690000D02*
D03*
X9611250Y6341250D02*
D03*
X11250000Y7010000D02*
D03*
X10700000Y6820000D02*
D03*
X10740000Y7490000D02*
D03*
X10900000Y7500000D02*
D03*
X10070000D02*
D03*
X9620000Y7260000D02*
D03*
X9900000Y7280000D02*
D03*
X8580000Y7670000D02*
D03*
X8750000Y8070000D02*
D03*
X9230000Y8470000D02*
D03*
X8460000Y8830000D02*
D03*
X9450000Y8550000D02*
D03*
X8900000Y8420000D02*
D03*
X9057500Y7800000D02*
D03*
D82*
X9440000Y9140000D02*
D03*
X9640000Y9130000D02*
D03*
X10400000Y9290000D02*
D03*
D83*
X8845000Y8830000D02*
D03*
Y8720000D02*
D03*
X8955000D02*
D03*
Y8830000D02*
D03*
X9845000Y7680000D02*
D03*
X9735000D02*
D03*
X9625000D02*
D03*
X9515000D02*
D03*
X9405000D02*
D03*
X9845000Y7790000D02*
D03*
X9735000D02*
D03*
X9625000D02*
D03*
X9515000D02*
D03*
X9405000D02*
D03*
X9845000Y7900000D02*
D03*
X9735000D02*
D03*
X9625000D02*
D03*
X9515000D02*
D03*
X9405000D02*
D03*
X9845000Y8010000D02*
D03*
X9735000D02*
D03*
X9625000D02*
D03*
X9515000D02*
D03*
X9405000D02*
D03*
X9845000Y8120000D02*
D03*
X9735000D02*
D03*
X9625000D02*
D03*
X9515000D02*
D03*
X9405000D02*
D03*
%TF.MD5,a1a21edda123d923472f25c86e1c34f4*%
M02*
