%TF.GenerationSoftware,Altium Limited,Altium Designer,24.6.1 (21)*%
G04 Layer_Color=65535*
%FSLAX45Y45*%
%MOMM*%
%TF.SameCoordinates,4B1D9C49-5ED8-45E5-B71D-261F0C762659*%
%TF.FilePolarity,Positive*%
%TF.FileFunction,Legend,Top*%
%TF.Part,Single*%
G01*
G75*
%TA.AperFunction,NonConductor*%
%ADD46C,0.25400*%
%ADD47C,0.25000*%
%ADD48C,0.30000*%
%ADD49C,0.20000*%
%ADD50C,0.17500*%
D46*
X8906788Y6531328D02*
G03*
X8906788Y6531328I-10270J0D01*
G01*
X8996967Y6792359D02*
X8971575Y6817751D01*
X8920792D01*
X8895400Y6792359D01*
Y6690792D01*
X8920792Y6665400D01*
X8971575D01*
X8996967Y6690792D01*
Y6741575D01*
X8946184D01*
X9047751Y6665400D02*
Y6817751D01*
X9123926D01*
X9149318Y6792359D01*
Y6741575D01*
X9123926Y6716183D01*
X9047751D01*
X9200101Y6817751D02*
X9250885D01*
X9225493D01*
Y6665400D01*
X9200101D01*
X9250885D01*
X9403236Y6817751D02*
X9352452D01*
X9327060Y6792359D01*
Y6690792D01*
X9352452Y6665400D01*
X9403236D01*
X9428628Y6690792D01*
Y6792359D01*
X9403236Y6817751D01*
X10935400Y7517751D02*
Y7390792D01*
X10960792Y7365400D01*
X11011575D01*
X11036967Y7390792D01*
Y7517751D01*
X11189318Y7492359D02*
X11163926Y7517751D01*
X11113143D01*
X11087751Y7492359D01*
Y7466967D01*
X11113143Y7441575D01*
X11163926D01*
X11189318Y7416184D01*
Y7390792D01*
X11163926Y7365400D01*
X11113143D01*
X11087751Y7390792D01*
X11240101Y7517751D02*
Y7365400D01*
X11316277D01*
X11341669Y7390792D01*
Y7416184D01*
X11316277Y7441575D01*
X11240101D01*
X11316277D01*
X11341669Y7466967D01*
Y7492359D01*
X11316277Y7517751D01*
X11240101D01*
X10306967Y8562359D02*
X10281575Y8587751D01*
X10230792D01*
X10205400Y8562359D01*
Y8536967D01*
X10230792Y8511575D01*
X10281575D01*
X10306967Y8486183D01*
Y8460792D01*
X10281575Y8435400D01*
X10230792D01*
X10205400Y8460792D01*
X10357751Y8587751D02*
Y8435400D01*
X10408534Y8486183D01*
X10459318Y8435400D01*
Y8587751D01*
X10510101D02*
Y8435400D01*
X10586277D01*
X10611669Y8460792D01*
Y8562359D01*
X10586277Y8587751D01*
X10510101D01*
D47*
X9037500Y9070000D02*
G03*
X9037500Y9070000I-12500J0D01*
G01*
X11008500Y7897500D02*
G03*
X11008500Y7897500I-12500J0D01*
G01*
X9202500Y8255000D02*
G03*
X9202500Y8255000I-12500J0D01*
G01*
X10833500Y6950000D02*
G03*
X10833500Y6950000I-12500J0D01*
G01*
D48*
X9900000Y6125000D02*
Y6500000D01*
X9775000Y6625000D02*
X9900000Y6500000D01*
X8825000Y6625000D02*
X9775000D01*
X8700000Y6500000D02*
X8825000Y6625000D01*
X8700000Y6125000D02*
Y6500000D01*
D49*
X9082500Y8990000D02*
X9115000D01*
Y8957500D02*
Y8990000D01*
X8685000D02*
X8717500D01*
X8685000Y8957500D02*
Y8990000D01*
Y8560000D02*
Y8592500D01*
Y8560000D02*
X8717500D01*
X9082500D02*
X9115000D01*
Y8592500D01*
X11046000Y7625500D02*
Y7672500D01*
Y8387500D02*
Y8434500D01*
X11313500D01*
X11046000Y7625500D02*
X11313500D01*
X9255000Y7530000D02*
X9297500D01*
X9255000D02*
Y7572500D01*
X9952500Y7530000D02*
X9995000D01*
Y7572500D01*
Y8227500D02*
Y8270000D01*
X9952500D02*
X9995000D01*
X9255000D02*
X9297500D01*
X9255000Y8227500D02*
Y8270000D01*
X10145750Y6795750D02*
X10796250D01*
X10145750Y6445250D02*
Y6795750D01*
Y6445250D02*
X10796250D01*
Y6795750D01*
X8516927Y7233215D02*
Y7322500D01*
Y7233215D02*
X8640000D01*
D50*
X11185285Y6634715D02*
Y6760000D01*
X11314715D01*
Y6634715D02*
Y6760000D01*
X10194715Y7610285D02*
X10320000D01*
Y7739715D01*
X10194715D02*
X10320000D01*
X10075000Y8623500D02*
Y9003500D01*
Y8623500D02*
X10655000D01*
X10775000Y8743500D01*
Y8883500D01*
X10655000Y9003500D02*
X10775000Y8883500D01*
X10075000Y9003500D02*
X10655000D01*
%TF.MD5,70ee047826689298c4ca2ad236c96deb*%
M02*
