%TF.GenerationSoftware,Altium Limited,Altium Designer,24.6.1 (21)*%
G04 Layer_Physical_Order=1*
G04 Layer_Color=255*
%FSLAX45Y45*%
%MOMM*%
%TF.SameCoordinates,4B1D9C49-5ED8-45E5-B71D-261F0C762659*%
%TF.FilePolarity,Positive*%
%TF.FileFunction,Copper,L1,Top,Signal*%
%TF.Part,Single*%
G01*
G75*
%TA.AperFunction,Conductor*%
%ADD10C,0.26017*%
%TA.AperFunction,ConnectorPad*%
%ADD11R,1.00000X2.90000*%
%ADD12R,0.65000X1.70000*%
%TA.AperFunction,SMDPad,CuDef*%
G04:AMPARAMS|DCode=13|XSize=0.8mm|YSize=1mm|CornerRadius=0.1mm|HoleSize=0mm|Usage=FLASHONLY|Rotation=90.000|XOffset=0mm|YOffset=0mm|HoleType=Round|Shape=RoundedRectangle|*
%AMROUNDEDRECTD13*
21,1,0.80000,0.80000,0,0,90.0*
21,1,0.60000,1.00000,0,0,90.0*
1,1,0.20000,0.40000,0.30000*
1,1,0.20000,0.40000,-0.30000*
1,1,0.20000,-0.40000,-0.30000*
1,1,0.20000,-0.40000,0.30000*
%
%ADD13ROUNDEDRECTD13*%
%ADD14R,0.25000X0.80000*%
%ADD15R,0.80000X0.25000*%
%ADD16R,2.60000X2.70000*%
G04:AMPARAMS|DCode=17|XSize=0.6mm|YSize=0.7mm|CornerRadius=0.075mm|HoleSize=0mm|Usage=FLASHONLY|Rotation=270.000|XOffset=0mm|YOffset=0mm|HoleType=Round|Shape=RoundedRectangle|*
%AMROUNDEDRECTD17*
21,1,0.60000,0.55000,0,0,270.0*
21,1,0.45000,0.70000,0,0,270.0*
1,1,0.15000,-0.27500,-0.22500*
1,1,0.15000,-0.27500,0.22500*
1,1,0.15000,0.27500,0.22500*
1,1,0.15000,0.27500,-0.22500*
%
%ADD17ROUNDEDRECTD17*%
G04:AMPARAMS|DCode=18|XSize=0.6mm|YSize=0.7mm|CornerRadius=0.075mm|HoleSize=0mm|Usage=FLASHONLY|Rotation=180.000|XOffset=0mm|YOffset=0mm|HoleType=Round|Shape=RoundedRectangle|*
%AMROUNDEDRECTD18*
21,1,0.60000,0.55000,0,0,180.0*
21,1,0.45000,0.70000,0,0,180.0*
1,1,0.15000,-0.22500,0.27500*
1,1,0.15000,0.22500,0.27500*
1,1,0.15000,0.22500,-0.27500*
1,1,0.15000,-0.22500,-0.27500*
%
%ADD18ROUNDEDRECTD18*%
%TA.AperFunction,ConnectorPad*%
%ADD19R,1.30000X1.65000*%
%ADD20R,1.90000X1.80000*%
%ADD21R,1.90000X1.00000*%
%ADD22R,1.55000X1.42500*%
%ADD23R,1.38000X0.45000*%
%TA.AperFunction,SMDPad,CuDef*%
G04:AMPARAMS|DCode=24|XSize=0.8mm|YSize=1mm|CornerRadius=0.1mm|HoleSize=0mm|Usage=FLASHONLY|Rotation=180.000|XOffset=0mm|YOffset=0mm|HoleType=Round|Shape=RoundedRectangle|*
%AMROUNDEDRECTD24*
21,1,0.80000,0.80000,0,0,180.0*
21,1,0.60000,1.00000,0,0,180.0*
1,1,0.20000,-0.30000,0.40000*
1,1,0.20000,0.30000,0.40000*
1,1,0.20000,0.30000,-0.40000*
1,1,0.20000,-0.30000,-0.40000*
%
%ADD24ROUNDEDRECTD24*%
%ADD25R,1.25000X1.25000*%
%ADD26R,5.60000X5.60000*%
%ADD27O,0.25000X0.80000*%
%ADD28O,0.80000X0.25000*%
%ADD29R,3.18213X1.00429*%
G04:AMPARAMS|DCode=30|XSize=1.4mm|YSize=1.7mm|CornerRadius=0.175mm|HoleSize=0mm|Usage=FLASHONLY|Rotation=270.000|XOffset=0mm|YOffset=0mm|HoleType=Round|Shape=RoundedRectangle|*
%AMROUNDEDRECTD30*
21,1,1.40000,1.35000,0,0,270.0*
21,1,1.05000,1.70000,0,0,270.0*
1,1,0.35000,-0.67500,-0.52500*
1,1,0.35000,-0.67500,0.52500*
1,1,0.35000,0.67500,0.52500*
1,1,0.35000,0.67500,-0.52500*
%
%ADD30ROUNDEDRECTD30*%
G04:AMPARAMS|DCode=31|XSize=1.4mm|YSize=1.7mm|CornerRadius=0.175mm|HoleSize=0mm|Usage=FLASHONLY|Rotation=180.000|XOffset=0mm|YOffset=0mm|HoleType=Round|Shape=RoundedRectangle|*
%AMROUNDEDRECTD31*
21,1,1.40000,1.35000,0,0,180.0*
21,1,1.05000,1.70000,0,0,180.0*
1,1,0.35000,-0.52500,0.67500*
1,1,0.35000,0.52500,0.67500*
1,1,0.35000,0.52500,-0.67500*
1,1,0.35000,-0.52500,-0.67500*
%
%ADD31ROUNDEDRECTD31*%
G04:AMPARAMS|DCode=32|XSize=1.3mm|YSize=1.1mm|CornerRadius=0.055mm|HoleSize=0mm|Usage=FLASHONLY|Rotation=0.000|XOffset=0mm|YOffset=0mm|HoleType=Round|Shape=RoundedRectangle|*
%AMROUNDEDRECTD32*
21,1,1.30000,0.99000,0,0,0.0*
21,1,1.19000,1.10000,0,0,0.0*
1,1,0.11000,0.59500,-0.49500*
1,1,0.11000,-0.59500,-0.49500*
1,1,0.11000,-0.59500,0.49500*
1,1,0.11000,0.59500,0.49500*
%
%ADD32ROUNDEDRECTD32*%
%TA.AperFunction,BGAPad,CuDef*%
%ADD33C,0.86300*%
%TA.AperFunction,Conductor*%
%ADD34C,1.00000*%
%ADD35C,0.50000*%
%ADD36C,0.75000*%
%ADD37C,0.25000*%
%ADD38C,0.40000*%
%ADD39C,0.30000*%
%ADD40C,0.20000*%
%TA.AperFunction,ViaPad*%
%ADD41C,3.20000*%
%TA.AperFunction,ComponentPad*%
%ADD42C,1.06700*%
%TA.AperFunction,ViaPad*%
%ADD43C,0.60000*%
%ADD44C,0.70000*%
%ADD45C,0.50000*%
G36*
X10790000Y7690000D02*
X10680000D01*
X10455000Y7465000D01*
X10450000Y7160000D01*
X10390000D01*
X10310000Y7080000D01*
Y6880000D01*
X10180000D01*
X10170000Y6890000D01*
Y7040000D01*
X10290000Y7160000D01*
Y7390000D01*
Y7420000D01*
X10640000Y7900000D01*
X10680000Y7900000D01*
X10790000Y7900000D01*
Y7690000D01*
D02*
G37*
G36*
X11061000Y7922500D02*
X11230000D01*
Y7900000D01*
Y7890000D01*
X11221250Y7872500D01*
X11061000D01*
Y7870000D01*
X10950000D01*
Y7700000D01*
X10840000D01*
Y7920000D01*
X10850000Y7930000D01*
X11061000D01*
Y7922500D01*
D02*
G37*
G36*
X10970000Y7430000D02*
X11100000Y7300000D01*
Y6810000D01*
X11060000Y6770000D01*
X10640000D01*
Y7090000D01*
X10570000Y7160000D01*
X10520000D01*
Y7340000D01*
X10540000Y7360000D01*
X10650000D01*
Y7590000D01*
X10720000Y7660000D01*
X10970000D01*
Y7430000D01*
D02*
G37*
G36*
X10540000Y6630000D02*
X10550000Y6620000D01*
X10880000D01*
Y6720000D01*
X10918385D01*
X10925174Y6700000D01*
X10925075Y6699924D01*
X10913855Y6685302D01*
X10906802Y6668273D01*
X10904396Y6650000D01*
Y6227824D01*
X10896572Y6220000D01*
X10526312D01*
X10519523Y6240000D01*
X10520924Y6241075D01*
X10532145Y6255698D01*
X10539198Y6272726D01*
X10541604Y6291000D01*
X10539198Y6309273D01*
X10532145Y6326302D01*
X10520924Y6340924D01*
X10506302Y6352145D01*
X10489273Y6359198D01*
X10471000Y6361604D01*
X10380000D01*
Y7020000D01*
X10400000Y7040000D01*
X10540000D01*
Y6630000D01*
D02*
G37*
%LPC*%
G36*
X10897500Y7538186D02*
X10883844Y7535469D01*
X10872267Y7527733D01*
X10864531Y7516156D01*
X10861814Y7502500D01*
X10864531Y7488844D01*
X10872267Y7477266D01*
X10874766Y7474766D01*
X10886344Y7467031D01*
X10900000Y7464314D01*
X10913656Y7467031D01*
X10925234Y7474766D01*
X10932969Y7486344D01*
X10935686Y7500000D01*
X10932969Y7513656D01*
X10925234Y7525234D01*
X10922734Y7527733D01*
X10911156Y7535469D01*
X10897500Y7538186D01*
D02*
G37*
G36*
X10737500Y7528186D02*
X10723844Y7525469D01*
X10712267Y7517734D01*
X10704531Y7506156D01*
X10701815Y7492500D01*
X10704531Y7478844D01*
X10712267Y7467266D01*
X10714766Y7464766D01*
X10726344Y7457031D01*
X10740000Y7454314D01*
X10753656Y7457031D01*
X10765234Y7464766D01*
X10772969Y7476344D01*
X10775686Y7490000D01*
X10772969Y7503656D01*
X10765234Y7515234D01*
X10762734Y7517734D01*
X10751157Y7525469D01*
X10737500Y7528186D01*
D02*
G37*
%LPD*%
D10*
X9995905Y7976832D02*
G03*
X9991483Y7975000I0J-6253D01*
G01*
Y8025000D02*
G03*
X9995904Y8023169I4421J4421D01*
G01*
X11150000Y7965000D02*
G03*
X11127471Y7974332I-22529J-22529D01*
G01*
X10556555Y7975582D02*
G03*
X10559573Y7974332I3018J3018D01*
G01*
X10556555Y7975582D02*
G03*
X10553537Y7976832I-3018J-3018D01*
G01*
X11149964Y8029964D02*
G03*
X11150000Y8030000I-22492J22564D01*
G01*
X11127472Y8020668D02*
G03*
X11149964Y8029964I0J31859D01*
G01*
X10575748Y8021919D02*
G03*
X10578766Y8020668I3018J3018D01*
G01*
X10575748Y8021919D02*
G03*
X10572731Y8023169I-3018J-3018D01*
G01*
X11140668Y7974332D02*
X11150000Y7965000D01*
X9995904Y8023169D02*
X10572731D01*
X9995905Y7976832D02*
X10553537D01*
X10559573Y7974332D02*
X11127471D01*
X9965000Y7975000D02*
X9991483D01*
X10578766Y8020668D02*
X11127472D01*
X9965000Y8025000D02*
X9991483D01*
D11*
X9797500Y6210000D02*
D03*
X8802500D02*
D03*
D12*
X9612500Y6490000D02*
D03*
X9237500D02*
D03*
X9487500D02*
D03*
X9362500D02*
D03*
X9112500D02*
D03*
X8987500D02*
D03*
D13*
X9260000Y8755000D02*
D03*
Y8605000D02*
D03*
X10737500Y7585000D02*
D03*
Y7735000D02*
D03*
X10897500Y7590000D02*
D03*
Y7740000D02*
D03*
X8875000Y8075000D02*
D03*
Y8225000D02*
D03*
D14*
X9025000Y8975000D02*
D03*
X8975000D02*
D03*
X8925000D02*
D03*
X8875000D02*
D03*
X8825000D02*
D03*
X8775000D02*
D03*
X9025000Y8575000D02*
D03*
X8975000D02*
D03*
X8925000D02*
D03*
X8875000D02*
D03*
X8825000D02*
D03*
X8775000D02*
D03*
D15*
X8702500Y8900000D02*
D03*
Y8850000D02*
D03*
Y8800000D02*
D03*
Y8750000D02*
D03*
Y8700000D02*
D03*
Y8650000D02*
D03*
X9097500Y8900000D02*
D03*
Y8850000D02*
D03*
Y8800000D02*
D03*
Y8750000D02*
D03*
Y8700000D02*
D03*
Y8650000D02*
D03*
D16*
X8900000Y8775000D02*
D03*
D17*
X9525000Y8550000D02*
D03*
Y8450000D02*
D03*
X8550000Y8825000D02*
D03*
Y8925000D02*
D03*
Y8625000D02*
D03*
Y8725000D02*
D03*
X10125000Y8250000D02*
D03*
Y8150000D02*
D03*
X9125000Y8175000D02*
D03*
Y8075000D02*
D03*
X9130000Y7610000D02*
D03*
Y7710000D02*
D03*
X11250000Y6600000D02*
D03*
Y6700000D02*
D03*
Y6825000D02*
D03*
Y6925000D02*
D03*
D18*
X9570000Y8675000D02*
D03*
X9470000D02*
D03*
X9650000D02*
D03*
X9750000D02*
D03*
X9240000Y8370000D02*
D03*
X9140000D02*
D03*
X9995000Y7375000D02*
D03*
X9895000D02*
D03*
X8725000Y8425000D02*
D03*
X8825000D02*
D03*
X10260000Y7500000D02*
D03*
X10160000D02*
D03*
X10260000Y7675000D02*
D03*
X10160000D02*
D03*
X10600000Y9125000D02*
D03*
X10500000D02*
D03*
X8977500Y7790000D02*
D03*
X8877500D02*
D03*
X10410000Y9125000D02*
D03*
X10310000D02*
D03*
X8867500Y7665000D02*
D03*
X8967500D02*
D03*
X8752500Y7670000D02*
D03*
X8652500D02*
D03*
D19*
X11416000Y7692500D02*
D03*
Y8367500D02*
D03*
D20*
Y7915000D02*
D03*
D21*
Y8185000D02*
D03*
D22*
X11158500Y7781250D02*
D03*
Y8278750D02*
D03*
D23*
X11150000Y7900000D02*
D03*
Y7965000D02*
D03*
Y8030000D02*
D03*
Y8095000D02*
D03*
Y8160000D02*
D03*
D24*
X10732500Y7845000D02*
D03*
X10882500D02*
D03*
X9625000Y7375000D02*
D03*
X9775000D02*
D03*
D25*
X10700000Y6950000D02*
D03*
X10471000D02*
D03*
X10242000D02*
D03*
D26*
X9625000Y7900000D02*
D03*
D27*
X9350000Y8240000D02*
D03*
X9400000D02*
D03*
X9450000D02*
D03*
X9500000D02*
D03*
X9550000D02*
D03*
X9600000D02*
D03*
X9650000D02*
D03*
X9700000D02*
D03*
X9750000D02*
D03*
X9800000D02*
D03*
X9850000D02*
D03*
X9900000D02*
D03*
Y7560000D02*
D03*
X9850000D02*
D03*
X9800000D02*
D03*
X9750000D02*
D03*
X9700000D02*
D03*
X9650000D02*
D03*
X9600000D02*
D03*
X9550000D02*
D03*
X9500000D02*
D03*
X9450000D02*
D03*
X9400000D02*
D03*
X9350000D02*
D03*
D28*
X9965000Y8175000D02*
D03*
Y8125000D02*
D03*
Y8075000D02*
D03*
Y8025000D02*
D03*
Y7975000D02*
D03*
Y7925000D02*
D03*
Y7875000D02*
D03*
Y7825000D02*
D03*
Y7775000D02*
D03*
Y7725000D02*
D03*
Y7675000D02*
D03*
Y7625000D02*
D03*
X9285000D02*
D03*
Y7675000D02*
D03*
Y7725000D02*
D03*
Y7775000D02*
D03*
Y7825000D02*
D03*
Y7875000D02*
D03*
Y7925000D02*
D03*
Y7975000D02*
D03*
Y8025000D02*
D03*
Y8075000D02*
D03*
Y8125000D02*
D03*
Y8175000D02*
D03*
D29*
X10471000Y6291000D02*
D03*
D30*
X10975000Y6878600D02*
D03*
Y6650000D02*
D03*
D31*
X10600000Y7250000D02*
D03*
X10371400D02*
D03*
D32*
X8855000Y7327500D02*
D03*
Y7517500D02*
D03*
X8625000Y7327500D02*
D03*
Y7517500D02*
D03*
D33*
X10298000Y8750000D02*
D03*
X10425000D02*
D03*
X10552000D02*
D03*
X10298000Y8877000D02*
D03*
X10425000D02*
D03*
X10552000D02*
D03*
D34*
X10300000Y6228892D02*
X10362108Y6291000D01*
X10300000Y6220000D02*
Y6228892D01*
X10362108Y6291000D02*
X10471000D01*
X10075000Y6220000D02*
X10300000D01*
X10017500Y6162500D02*
X10075000Y6220000D01*
X9995000Y6185000D02*
X10017500Y6162500D01*
X9995000Y6185000D02*
Y6925000D01*
X10916421Y6140000D02*
X10975000Y6198579D01*
X10040000Y6140000D02*
X10916421D01*
X10017500Y6162500D02*
X10040000Y6140000D01*
X9540000D02*
X9560000Y6160000D01*
X9170000Y6140000D02*
X9540000D01*
X10975000Y6198579D02*
Y6650000D01*
X9350000Y8930000D02*
Y9030000D01*
X9000000Y9450000D02*
X9350000D01*
X8700000Y9150000D02*
X9000000Y9450000D01*
X9350000D02*
X9808579D01*
X9808579Y9450000D01*
X9750000Y9391421D02*
X9808579Y9450000D01*
X9750000Y9140000D02*
Y9391421D01*
X10950000Y8570000D02*
Y9391421D01*
X10891421Y9450000D02*
X10950000Y9391421D01*
X10600000Y9450000D02*
X10891421D01*
X10710000Y8330000D02*
X10950000Y8570000D01*
X10310000Y8250000D02*
X10390000Y8330000D01*
X9808579Y9450000D02*
X10600000D01*
X8520000Y8230000D02*
X8550000D01*
X8310000D02*
X8520000D01*
X8270000Y8190000D02*
Y8760000D01*
Y7050000D02*
X8820000D01*
X8270000D02*
Y8190000D01*
Y6778579D02*
Y7050000D01*
X8328579Y6720000D02*
X8710000D01*
X8270000Y8190000D02*
X8310000Y8230000D01*
X8270000Y6778579D02*
X8328579Y6720000D01*
D35*
X8987500Y6232500D02*
X9070000Y6150000D01*
X8987500Y6232500D02*
Y6490000D01*
Y6712500D01*
X9470000Y8675000D02*
Y8870000D01*
X9460000Y8880000D02*
X9470000Y8870000D01*
X8550000Y8925000D02*
Y9050710D01*
X8579289Y9080000D01*
X8630000D02*
X8700000Y9150000D01*
X8579289Y9080000D02*
X8630000D01*
X9750000Y8675000D02*
Y8920000D01*
X10125000Y8250000D02*
X10230000D01*
X10600000Y9125000D02*
Y9290000D01*
X10600000Y9125000D02*
X10600000Y9125000D01*
X8701913Y8401913D02*
X8715000Y8415000D01*
X8631913Y8401913D02*
X8701913D01*
X8630000Y8400000D02*
X8631913Y8401913D01*
X8725000Y8420000D02*
Y8425000D01*
X8720000Y8415000D02*
X8725000Y8420000D01*
X8715000Y8415000D02*
X8720000D01*
X8360000Y8930000D02*
X8545000D01*
X8550000Y8925000D01*
X9130000Y7410000D02*
Y7610000D01*
X8690000Y8230000D02*
X8695000Y8225000D01*
X8875000D01*
X8980000Y6720000D02*
X8987500Y6712500D01*
X9995000Y7085000D02*
Y7375000D01*
X10000000Y7380000D01*
D36*
X9070000Y6150000D02*
X9080000Y6140000D01*
X9170000D01*
X9400000Y8880000D02*
X9460000D01*
X9350000Y8930000D02*
X9400000Y8880000D01*
X9750000Y8920000D02*
Y9140000D01*
X10230000Y8250000D02*
X10310000D01*
X10600000Y9290000D02*
Y9450000D01*
X8270000Y8840000D02*
X8360000Y8930000D01*
X8270000Y8760000D02*
Y8840000D01*
X8820000Y7050000D02*
X9130000Y7360000D01*
Y7410000D01*
X8710000Y6720000D02*
X8980000D01*
X8550000Y8230000D02*
X8690000D01*
X9995000Y6925000D02*
Y7085000D01*
D37*
X9440000Y9140000D02*
Y9235355D01*
X9425355Y9250000D02*
X9440000Y9235355D01*
X9250000Y9250000D02*
X9425355D01*
X9168640Y8855000D02*
X9235000Y8921360D01*
X9137322Y8855000D02*
X9168640D01*
X9132323Y8850000D02*
X9137322Y8855000D01*
X9097500Y8850000D02*
X9132323D01*
X9235000Y8921360D02*
Y9235000D01*
X9250000Y9250000D01*
X9097500Y8900000D02*
X9150000D01*
X9190000Y8940000D02*
Y9295355D01*
X9150000Y8900000D02*
X9190000Y8940000D01*
X9640000Y9130000D02*
X9645000Y9125000D01*
Y8680000D02*
Y9125000D01*
Y8680000D02*
X9650000Y8675000D01*
X9204645Y9310000D02*
X9530000D01*
X9190000Y9295355D02*
X9204645Y9310000D01*
X9530000D02*
X9557500Y9282500D01*
Y8957959D02*
Y9282500D01*
X9650000Y8240000D02*
Y8675000D01*
X9557500Y8957959D02*
X9570000Y8945459D01*
Y8675000D02*
Y8945459D01*
X9260000Y8605000D02*
X9262500Y8602500D01*
X9357500D02*
X9360000Y8600000D01*
X9262500Y8602500D02*
X9357500D01*
X9152500Y8532500D02*
X9363990D01*
X9387500Y8508990D01*
X8945000Y8325000D02*
X9152500Y8532500D01*
X9387500Y8469069D02*
Y8508990D01*
X9260000Y8760000D02*
X9277500D01*
X9257145Y8757145D02*
X9260000Y8760000D01*
X10000000Y8525000D02*
X10285355D01*
X9800000Y8325000D02*
X10000000Y8525000D01*
X8955000Y8715000D02*
Y8720000D01*
X9025000Y8575000D02*
Y8645000D01*
X8955000Y8715000D02*
X9025000Y8645000D01*
X8955000Y8835000D02*
X9025000Y8905000D01*
Y8975000D01*
X8955000Y8830000D02*
Y8835000D01*
X8550000Y8431568D02*
X8617500Y8499069D01*
X8550000Y8339645D02*
Y8431568D01*
X8564645Y8325000D02*
X8945000D01*
X9112500Y7231360D02*
X9400000Y7518861D01*
X9112500Y6490000D02*
Y7231360D01*
X9237500Y6490000D02*
Y7287500D01*
X9450000Y7500000D01*
X8855000Y7517500D02*
X8867500Y7530000D01*
Y7665000D01*
X8872500Y7670000D01*
X8617500Y8617500D02*
X8650000Y8650000D01*
X8617500Y8499069D02*
Y8617500D01*
X8650000Y8650000D02*
X8702500D01*
X9130000Y7610000D02*
X9190000D01*
X9212175Y7632175D01*
Y7775000D01*
X9195000Y7825000D02*
X9285000D01*
X9212175Y7775000D02*
X9285000D01*
X9241250Y8355000D02*
X9246250Y8350000D01*
X9230000Y8470000D02*
X9236250Y8463750D01*
Y8373750D02*
X9240000Y8370000D01*
X9236250Y8373750D02*
Y8463750D01*
X9350000Y8240000D02*
Y8267855D01*
X9335355Y8282500D02*
X9350000Y8267855D01*
X9177500Y8305932D02*
Y8307500D01*
X9170000Y8714645D02*
Y8740000D01*
X9187145Y8757145D01*
X9257145D01*
X9579068Y8602500D02*
Y8665932D01*
X9570000Y8675000D02*
X9579068Y8665932D01*
X9155355Y8700000D02*
X9170000Y8714645D01*
X9097500Y8700000D02*
X9155355D01*
X9600000Y8240000D02*
Y8581569D01*
X8625000Y8850000D02*
X8702500D01*
X8625000Y8800000D02*
X8625000Y8800000D01*
X8702500D01*
X8625000Y8750000D02*
X8702500D01*
X8625000Y8850000D02*
X8625000Y8850000D01*
X9579068Y8602500D02*
X9600000Y8581569D01*
X8625000Y8750000D02*
X8625000Y8750000D01*
X8594068Y8662500D02*
X8631568Y8700000D01*
X8702500D01*
X8577500Y8662500D02*
X8594068D01*
X8575000Y8660000D02*
X8577500Y8662500D01*
X9387500Y8469069D02*
X9500000Y8356569D01*
X9400000Y8240000D02*
Y8313639D01*
X8550000Y8339645D02*
X8564645Y8325000D01*
X10260000Y7500000D02*
Y7675000D01*
X10092500Y7675000D02*
X10092500Y7675000D01*
X10160000D01*
X9965000Y7675000D02*
X10092500D01*
X9500000Y8240000D02*
Y8356569D01*
X9550000Y8240000D02*
Y8375000D01*
X9525000Y8400000D02*
Y8450000D01*
Y8400000D02*
X9550000Y8375000D01*
X10300000Y8539645D02*
Y8748000D01*
X10285355Y8525000D02*
X10300000Y8539645D01*
X9800000Y8240000D02*
Y8325000D01*
X10298000Y8750000D02*
X10300000Y8748000D01*
X10057500Y8425000D02*
X10410355D01*
X10425000Y8439645D02*
Y8750000D01*
X10410355Y8425000D02*
X10425000Y8439645D01*
X9900000Y8267500D02*
X10057500Y8425000D01*
X9900000Y8240000D02*
Y8267500D01*
X10552000Y8327000D02*
Y8750000D01*
X10300000Y8075000D02*
X10552000Y8327000D01*
X9362500Y7312500D02*
X9500000Y7450000D01*
X9362500Y6490000D02*
Y7312500D01*
X9487500Y7337500D02*
X9550000Y7400000D01*
X9487500Y6490000D02*
Y7337500D01*
X9500000Y7450000D02*
Y7560000D01*
X9400000Y7518861D02*
Y7560000D01*
X9450000Y7500000D02*
Y7560000D01*
X9550000Y7400000D02*
Y7560000D01*
X9800000Y7475000D02*
Y7560000D01*
X9900000Y7500000D02*
Y7560000D01*
X9850000Y7500000D02*
Y7560000D01*
Y7500000D02*
X9850000Y7500000D01*
X9965000Y8075000D02*
X10300000D01*
X9965000Y8175000D02*
X10050000D01*
X9965000Y8125000D02*
X10050000D01*
X9225000Y8175000D02*
X9285000D01*
D38*
X9125000Y8355000D02*
X9140000Y8370000D01*
X9125000Y8175000D02*
Y8355000D01*
Y8175000D02*
X9200000D01*
X8855000Y7327500D02*
X8973757D01*
X9620000Y7260000D02*
X9622500Y7262500D01*
Y7372500D02*
X9625000Y7375000D01*
X9622500Y7262500D02*
Y7372500D01*
X8580000Y7670000D02*
X8652500D01*
X8752500Y8072500D02*
X8872500D01*
X8875000Y8075000D01*
X8750000Y8070000D02*
X8752500Y8072500D01*
X8875000Y8075000D02*
X8875000Y8075000D01*
X9125000D01*
X8885000Y8225000D02*
X8935000Y8175000D01*
X9125000D01*
X8875000Y8225000D02*
X8885000D01*
D39*
X10970000Y8160000D02*
X11150000D01*
X8490000Y7520000D02*
X8492500Y7517500D01*
X8625000D01*
X8460000Y8630000D02*
X8545000D01*
X8550000Y8625000D01*
X10298000Y8877000D02*
X10299000Y8878000D01*
Y8989000D01*
X10300000Y8990000D01*
X10307500Y9122500D02*
X10310000Y9125000D01*
X10220000Y9120000D02*
X10222500Y9122500D01*
X10307500D01*
X10125000Y8150000D02*
X10230000D01*
X9115740Y7695740D02*
X9142825Y7722825D01*
X9044260Y7684260D02*
X9055740Y7695740D01*
X8982500Y7684260D02*
X9044260D01*
X8967500Y7665000D02*
Y7669260D01*
X8982500Y7684260D01*
X9055740Y7695740D02*
X9115740D01*
X9142825Y7722825D02*
Y7772825D01*
X9195000Y7825000D01*
X9612500Y6342500D02*
Y6490000D01*
X9610000Y6340000D02*
X9612500Y6342500D01*
X11250000Y6700000D02*
Y6825000D01*
Y6925000D02*
Y7010000D01*
X10737500Y7492500D02*
X10740000Y7490000D01*
X10897500Y7502500D02*
X10900000Y7500000D01*
X10070000D02*
X10160000D01*
X9897500Y7282500D02*
Y7372500D01*
X9880000Y7390000D02*
X9897500Y7372500D01*
Y7282500D02*
X9900000Y7280000D01*
X9246250Y8350000D02*
X9363639D01*
X9400000Y8313639D01*
X9200932Y8282500D02*
X9335355D01*
X9177500Y8305932D02*
X9200932Y8282500D01*
X9140000Y8345000D02*
X9177500Y8307500D01*
X9450000Y8550000D02*
X9525000D01*
X8740000Y8455000D02*
X8775000Y8490000D01*
Y8575000D01*
X8565000Y8810000D02*
X8594290D01*
X8550000Y8825000D02*
X8565000Y8810000D01*
X8594290D02*
X8604290Y8800000D01*
X8550000Y8925000D02*
X8561819Y8913181D01*
X8620000Y8855000D02*
X8625000Y8850000D01*
X8602426Y8913181D02*
X8620000Y8895607D01*
Y8855000D02*
Y8895607D01*
X8561819Y8913181D02*
X8602426D01*
X8604290Y8800000D02*
X8625000D01*
X8604290Y8750000D02*
X8625000D01*
X8545000Y8830000D02*
X8550000Y8825000D01*
X8460000Y8830000D02*
X8545000D01*
X8565000Y8740000D02*
X8594290D01*
X8604290Y8750000D01*
X8550000Y8725000D02*
X8565000Y8740000D01*
X8555000Y8625000D02*
X8570000Y8640000D01*
Y8655000D01*
X8575000Y8660000D01*
X8550000Y8625000D02*
X8555000D01*
X8830000Y8420000D02*
X8900000D01*
X8825000Y8425000D02*
X8830000Y8420000D01*
X11119905Y6650000D02*
X11169905Y6600000D01*
X10975000Y6650000D02*
X11119905D01*
X11169905Y6600000D02*
X11250000D01*
X10410000Y9125000D02*
X10500000D01*
X10410000D02*
X10417500Y9117500D01*
Y8884500D02*
X10425000Y8877000D01*
X10417500Y8884500D02*
Y9117500D01*
X10600000Y9050000D02*
Y9125000D01*
X10552000Y8877000D02*
Y9002000D01*
X10600000Y9050000D01*
X8725000Y8425000D02*
X8740000Y8440000D01*
Y8455000D01*
X9775000Y7375000D02*
X9800000Y7400000D01*
Y7475000D01*
X9880000Y7390000D02*
Y7449290D01*
X9850000Y7479290D02*
Y7500000D01*
Y7479290D02*
X9880000Y7449290D01*
X9900000Y7500000D02*
X9925000Y7475000D01*
X9982426D01*
X10000000Y7380000D02*
Y7457426D01*
X9982426Y7475000D02*
X10000000Y7457426D01*
X10050000Y8175000D02*
Y8232426D01*
X10080710Y8135000D02*
X10110000D01*
X10070710Y8125000D02*
X10080710Y8135000D01*
X10110000D02*
X10125000Y8150000D01*
X10050000Y8125000D02*
X10070710D01*
X10110000Y8235000D02*
X10125000Y8250000D01*
X10052574Y8235000D02*
X10110000D01*
X10050000Y8232426D02*
X10052574Y8235000D01*
X9200000Y8175000D02*
X9225000D01*
D40*
X8752500Y7363432D02*
Y7670000D01*
X8649216Y7351716D02*
X8740784D01*
X8752500Y7363432D01*
X8750000Y7672500D02*
X8752500Y7670000D01*
X8750000Y7672500D02*
Y7963284D01*
X9132500Y7875000D02*
X9285000D01*
X9057500Y7800000D02*
X9132500Y7875000D01*
X10405000Y9130000D02*
Y9285000D01*
Y9130000D02*
X10410000Y9125000D01*
X10400000Y9290000D02*
X10405000Y9285000D01*
X8989216Y7925000D02*
X9285000D01*
X8761716Y7975000D02*
X9285000D01*
X8625000Y7327500D02*
X8649216Y7351716D01*
X8872500Y7785000D02*
X8877500Y7790000D01*
X8872500Y7670000D02*
Y7785000D01*
X8977500Y7790000D02*
Y7913284D01*
X8989216Y7925000D01*
X8750000Y7963284D02*
X8761716Y7975000D01*
D41*
X8300000Y6300000D02*
D03*
Y9300000D02*
D03*
X11300000D02*
D03*
Y6300000D02*
D03*
D42*
X10171000Y8915100D02*
D03*
Y8711900D02*
D03*
X10679000Y8813500D02*
D03*
D43*
X10017500Y6162500D02*
D03*
X9560000Y6160000D02*
D03*
X9350000Y9030000D02*
D03*
Y9450000D02*
D03*
X9360000Y8600000D02*
D03*
X10710000Y8330000D02*
D03*
X10970000Y8160000D02*
D03*
X10390000Y8330000D02*
D03*
X8630000Y8400000D02*
D03*
X8520000Y8230000D02*
D03*
X8973757Y7327500D02*
D03*
X8492500Y7517500D02*
D03*
X8460000Y8630000D02*
D03*
X10920000Y7010000D02*
D03*
X11020000D02*
D03*
X10730000Y7300000D02*
D03*
Y7200000D02*
D03*
X10300000Y8990000D02*
D03*
X10220000Y9120000D02*
D03*
X10230000Y8150000D02*
D03*
X9050000Y7690000D02*
D03*
X9611250Y6341250D02*
D03*
X11250000Y7010000D02*
D03*
X10700000Y6820000D02*
D03*
X10740000Y7490000D02*
D03*
X10900000Y7500000D02*
D03*
X10070000D02*
D03*
X9620000Y7260000D02*
D03*
X9900000Y7280000D02*
D03*
X8580000Y7670000D02*
D03*
X8750000Y8070000D02*
D03*
X9230000Y8470000D02*
D03*
X8460000Y8830000D02*
D03*
X9450000Y8550000D02*
D03*
X8900000Y8420000D02*
D03*
X9057500Y7800000D02*
D03*
D44*
X9440000Y9140000D02*
D03*
X9640000Y9130000D02*
D03*
X10400000Y9290000D02*
D03*
D45*
X8845000Y8830000D02*
D03*
Y8720000D02*
D03*
X8955000D02*
D03*
Y8830000D02*
D03*
X9845000Y7680000D02*
D03*
X9735000D02*
D03*
X9625000D02*
D03*
X9515000D02*
D03*
X9405000D02*
D03*
X9845000Y7790000D02*
D03*
X9735000D02*
D03*
X9625000D02*
D03*
X9515000D02*
D03*
X9405000D02*
D03*
X9845000Y7900000D02*
D03*
X9735000D02*
D03*
X9625000D02*
D03*
X9515000D02*
D03*
X9405000D02*
D03*
X9845000Y8010000D02*
D03*
X9735000D02*
D03*
X9625000D02*
D03*
X9515000D02*
D03*
X9405000D02*
D03*
X9845000Y8120000D02*
D03*
X9735000D02*
D03*
X9625000D02*
D03*
X9515000D02*
D03*
X9405000D02*
D03*
%TF.MD5,85df9823be669246d455e9deb0d24f8b*%
M02*
