%TF.GenerationSoftware,Altium Limited,Altium Designer,24.6.1 (21)*%
G04 Layer_Color=2752767*
%FSLAX45Y45*%
%MOMM*%
%TF.SameCoordinates,4B1D9C49-5ED8-45E5-B71D-261F0C762659*%
%TF.FilePolarity,Positive*%
%TF.FileFunction,Drawing*%
%TF.Part,Single*%
G01*
G75*
%TA.AperFunction,NonConductor*%
%ADD85C,0.12700*%
%ADD86C,0.16933*%
D85*
X8300000Y6249200D02*
X8325400Y6274600D01*
X8350800D01*
X8325400Y6300000D01*
X8350800Y6325400D01*
X8325400D01*
X8300000Y6350800D01*
X8274600Y6325400D01*
X8249200D01*
X8274600Y6300000D01*
X8249200Y6274600D01*
X8274600D01*
X8300000Y6249200D01*
Y9249200D02*
X8325400Y9274600D01*
X8350800D01*
X8325400Y9300000D01*
X8350800Y9325400D01*
X8325400D01*
X8300000Y9350800D01*
X8274600Y9325400D01*
X8249200D01*
X8274600Y9300000D01*
X8249200Y9274600D01*
X8274600D01*
X8300000Y9249200D01*
X11300000D02*
X11325400Y9274600D01*
X11350800D01*
X11325400Y9300000D01*
X11350800Y9325400D01*
X11325400D01*
X11300000Y9350800D01*
X11274600Y9325400D01*
X11249200D01*
X11274600Y9300000D01*
X11249200Y9274600D01*
X11274600D01*
X11300000Y9249200D01*
Y6249200D02*
X11325400Y6274600D01*
X11350800D01*
X11325400Y6300000D01*
X11350800Y6325400D01*
X11325400D01*
X11300000Y6350800D01*
X11274600Y6325400D01*
X11249200D01*
X11274600Y6300000D01*
X11249200Y6274600D01*
X11274600D01*
X11300000Y6249200D01*
X10120200Y8864300D02*
Y8965900D01*
X10221800D01*
Y8864300D01*
X10120200D01*
Y8661100D02*
Y8762700D01*
X10221800D01*
Y8661100D01*
X10120200D01*
X10628200Y8762700D02*
Y8864300D01*
X10729800D01*
Y8762700D01*
X10628200D01*
X10017500Y6111700D02*
X9966700Y6213300D01*
X10068300D01*
X10017500Y6111700D01*
X9560000Y6109200D02*
X9509200Y6210800D01*
X9610800D01*
X9560000Y6109200D01*
X9350000Y8979200D02*
X9299200Y9080800D01*
X9400800D01*
X9350000Y8979200D01*
X9389200Y9089200D02*
X9414600Y9140000D01*
X9389200Y9190800D01*
X9440000Y9165400D01*
X9490800Y9190800D01*
X9465400Y9140000D01*
X9490800Y9089200D01*
X9440000Y9114600D01*
X9389200Y9089200D01*
X9589200Y9079200D02*
X9614600Y9130000D01*
X9589200Y9180800D01*
X9640000Y9155400D01*
X9690800Y9180800D01*
X9665400Y9130000D01*
X9690800Y9079200D01*
X9640000Y9104600D01*
X9589200Y9079200D01*
X9350000Y9399200D02*
X9299200Y9500800D01*
X9400800D01*
X9350000Y9399200D01*
X9360000Y8549200D02*
X9309200Y8650800D01*
X9410800D01*
X9360000Y8549200D01*
X10710000Y8279200D02*
X10659200Y8380800D01*
X10760800D01*
X10710000Y8279200D01*
X10970000Y8109200D02*
X10919200Y8210800D01*
X11020800D01*
X10970000Y8109200D01*
X10390000Y8279200D02*
X10339200Y8380800D01*
X10440800D01*
X10390000Y8279200D01*
X8630000Y8349200D02*
X8579200Y8450800D01*
X8680800D01*
X8630000Y8349200D01*
X8520000Y8179200D02*
X8469200Y8280800D01*
X8570800D01*
X8520000Y8179200D01*
X8973757Y7276700D02*
X8922957Y7378300D01*
X9024557D01*
X8973757Y7276700D01*
X8492500Y7466700D02*
X8441700Y7568300D01*
X8543300D01*
X8492500Y7466700D01*
X8460000Y8579200D02*
X8409200Y8680800D01*
X8510800D01*
X8460000Y8579200D01*
X10920000Y6959200D02*
X10869200Y7060800D01*
X10970800D01*
X10920000Y6959200D01*
X11020000D02*
X10969200Y7060800D01*
X11070800D01*
X11020000Y6959200D01*
X10730000Y7249200D02*
X10679200Y7350800D01*
X10780800D01*
X10730000Y7249200D01*
Y7149200D02*
X10679200Y7250800D01*
X10780800D01*
X10730000Y7149200D01*
X10300000Y8939200D02*
X10249200Y9040800D01*
X10350800D01*
X10300000Y8939200D01*
X10220000Y9069200D02*
X10169200Y9170800D01*
X10270800D01*
X10220000Y9069200D01*
X10230000Y8099200D02*
X10179200Y8200800D01*
X10280800D01*
X10230000Y8099200D01*
X9050000Y7639200D02*
X8999200Y7740800D01*
X9100800D01*
X9050000Y7639200D01*
X9611250Y6290450D02*
X9560450Y6392050D01*
X9662050D01*
X9611250Y6290450D01*
X11250000Y6959200D02*
X11199200Y7060800D01*
X11300800D01*
X11250000Y6959200D01*
X10700000Y6769200D02*
X10649200Y6870800D01*
X10750800D01*
X10700000Y6769200D01*
X10740000Y7439200D02*
X10689200Y7540800D01*
X10790800D01*
X10740000Y7439200D01*
X10900000Y7449200D02*
X10849200Y7550800D01*
X10950800D01*
X10900000Y7449200D01*
X10070000D02*
X10019200Y7550800D01*
X10120800D01*
X10070000Y7449200D01*
X9620000Y7209200D02*
X9569200Y7310800D01*
X9670800D01*
X9620000Y7209200D01*
X9900000Y7229200D02*
X9849200Y7330800D01*
X9950800D01*
X9900000Y7229200D01*
X8580000Y7619200D02*
X8529200Y7720800D01*
X8630800D01*
X8580000Y7619200D01*
X8750000Y8019200D02*
X8699200Y8120800D01*
X8800800D01*
X8750000Y8019200D01*
X9230000Y8419200D02*
X9179200Y8520800D01*
X9280800D01*
X9230000Y8419200D01*
X8460000Y8779200D02*
X8409200Y8880800D01*
X8510800D01*
X8460000Y8779200D01*
X9450000Y8499200D02*
X9399200Y8600800D01*
X9500800D01*
X9450000Y8499200D01*
X8900000Y8369200D02*
X8849200Y8470800D01*
X8950800D01*
X8900000Y8369200D01*
X10349200Y9239200D02*
X10374600Y9290000D01*
X10349200Y9340800D01*
X10400000Y9315400D01*
X10450800Y9340800D01*
X10425400Y9290000D01*
X10450800Y9239200D01*
X10400000Y9264600D01*
X10349200Y9239200D01*
X9057500Y7749200D02*
X9006700Y7850800D01*
X9108300D01*
X9057500Y7749200D01*
D86*
X8895800Y8830000D02*
G03*
X8895800Y8830000I-50800J0D01*
G01*
Y8720000D02*
G03*
X8895800Y8720000I-50800J0D01*
G01*
X9005800D02*
G03*
X9005800Y8720000I-50800J0D01*
G01*
Y8830000D02*
G03*
X9005800Y8830000I-50800J0D01*
G01*
X9895800Y7680000D02*
G03*
X9895800Y7680000I-50800J0D01*
G01*
X9785800D02*
G03*
X9785800Y7680000I-50800J0D01*
G01*
X9675800D02*
G03*
X9675800Y7680000I-50800J0D01*
G01*
X9565800D02*
G03*
X9565800Y7680000I-50800J0D01*
G01*
X9455800D02*
G03*
X9455800Y7680000I-50800J0D01*
G01*
X9895800Y7790000D02*
G03*
X9895800Y7790000I-50800J0D01*
G01*
X9785800D02*
G03*
X9785800Y7790000I-50800J0D01*
G01*
X9675800D02*
G03*
X9675800Y7790000I-50800J0D01*
G01*
X9565800D02*
G03*
X9565800Y7790000I-50800J0D01*
G01*
X9455800D02*
G03*
X9455800Y7790000I-50800J0D01*
G01*
X9895800Y7900000D02*
G03*
X9895800Y7900000I-50800J0D01*
G01*
X9785800D02*
G03*
X9785800Y7900000I-50800J0D01*
G01*
X9675800D02*
G03*
X9675800Y7900000I-50800J0D01*
G01*
X9565800D02*
G03*
X9565800Y7900000I-50800J0D01*
G01*
X9455800D02*
G03*
X9455800Y7900000I-50800J0D01*
G01*
X9895800Y8010000D02*
G03*
X9895800Y8010000I-50800J0D01*
G01*
X9785800D02*
G03*
X9785800Y8010000I-50800J0D01*
G01*
X9675800D02*
G03*
X9675800Y8010000I-50800J0D01*
G01*
X9565800D02*
G03*
X9565800Y8010000I-50800J0D01*
G01*
X9455800D02*
G03*
X9455800Y8010000I-50800J0D01*
G01*
X9895800Y8120000D02*
G03*
X9895800Y8120000I-50800J0D01*
G01*
X9785800D02*
G03*
X9785800Y8120000I-50800J0D01*
G01*
X9675800D02*
G03*
X9675800Y8120000I-50800J0D01*
G01*
X9565800D02*
G03*
X9565800Y8120000I-50800J0D01*
G01*
X9455800D02*
G03*
X9455800Y8120000I-50800J0D01*
G01*
%TF.MD5,8caf8647025d0238adbd298e14c2a37d*%
M02*
